<?xml version="1.0" encoding="UTF-8"?>
<!DOCTYPE svg PUBLIC "-//W3C//DTD SVG 1.1//EN" "http://www.w3.org/Graphics/SVG/1.1/DTD/svg11.dtd">
<svg xmlns="http://www.w3.org/2000/svg" version="1.1" width="900px" height="812px" style="shape-rendering:geometricPrecision; text-rendering:geometricPrecision; image-rendering:optimizeQuality; fill-rule:evenodd; clip-rule:evenodd" xmlns:xlink="http://www.w3.org/1999/xlink">
<g><path style="opacity:1" fill="#a28033" d="M 535.5,103.5 C 535.738,105.404 536.738,106.738 538.5,107.5C 538.427,109.027 539.094,110.027 540.5,110.5C 540.738,112.404 541.738,113.738 543.5,114.5C 543.833,115.833 544.167,117.167 544.5,118.5C 542.596,118.738 541.262,119.738 540.5,121.5C 538.596,121.738 537.262,122.738 536.5,124.5C 534.973,124.427 533.973,125.094 533.5,126.5C 533.5,127.167 533.167,127.5 532.5,127.5C 530.973,127.427 529.973,128.094 529.5,129.5C 527.596,129.738 526.262,130.738 525.5,132.5C 523.596,132.738 522.262,133.738 521.5,135.5C 519.596,135.738 518.262,136.738 517.5,138.5C 515.973,138.427 514.973,139.094 514.5,140.5C 514.5,141.167 514.167,141.5 513.5,141.5C 511.973,141.427 510.973,142.094 510.5,143.5C 508.596,143.738 507.262,144.738 506.5,146.5C 504.596,146.738 503.262,147.738 502.5,149.5C 500.596,149.738 499.262,150.738 498.5,152.5C 496.596,152.738 495.262,153.738 494.5,155.5C 492.973,155.427 491.973,156.094 491.5,157.5C 491.5,158.167 491.167,158.5 490.5,158.5C 488.973,158.427 487.973,159.094 487.5,160.5C 485.596,160.738 484.262,161.738 483.5,163.5C 481.596,163.738 480.262,164.738 479.5,166.5C 477.596,166.738 476.262,167.738 475.5,169.5C 473.973,169.427 472.973,170.094 472.5,171.5C 472.5,172.167 472.167,172.5 471.5,172.5C 469.973,172.427 468.973,173.094 468.5,174.5C 466.596,174.738 465.262,175.738 464.5,177.5C 462.596,177.738 461.262,178.738 460.5,180.5C 458.596,180.738 457.262,181.738 456.5,183.5C 454.596,183.738 453.262,184.738 452.5,186.5C 450.973,186.427 449.973,187.094 449.5,188.5C 449.5,189.167 449.167,189.5 448.5,189.5C 446.973,189.427 445.973,190.094 445.5,191.5C 443.596,191.738 442.262,192.738 441.5,194.5C 439.596,194.738 438.262,195.738 437.5,197.5C 435.596,197.738 434.262,198.738 433.5,200.5C 431.973,200.427 430.973,201.094 430.5,202.5C 430.5,203.167 430.167,203.5 429.5,203.5C 427.973,203.427 426.973,204.094 426.5,205.5C 424.596,205.738 423.262,206.738 422.5,208.5C 420.596,208.738 419.262,209.738 418.5,211.5C 416.596,211.738 415.262,212.738 414.5,214.5C 412.596,214.738 411.262,215.738 410.5,217.5C 408.973,217.427 407.973,218.094 407.5,219.5C 407.5,220.167 407.167,220.5 406.5,220.5C 404.973,220.427 403.973,221.094 403.5,222.5C 401.596,222.738 400.262,223.738 399.5,225.5C 397.596,225.738 396.262,226.738 395.5,228.5C 393.596,228.738 392.262,229.738 391.5,231.5C 389.973,231.427 388.973,232.094 388.5,233.5C 388.5,234.167 388.167,234.5 387.5,234.5C 385.973,234.427 384.973,235.094 384.5,236.5C 382.596,236.738 381.262,237.738 380.5,239.5C 378.596,239.738 377.262,240.738 376.5,242.5C 374.596,242.738 373.262,243.738 372.5,245.5C 370.596,245.738 369.262,246.738 368.5,248.5C 367.5,250.167 366.167,251.5 364.5,252.5C 363.094,252.973 362.427,253.973 362.5,255.5C 358.666,259.668 357,264.668 357.5,270.5C 358.349,274.101 359.016,277.768 359.5,281.5C 359.461,284.089 360.461,286.089 362.5,287.5C 362.738,289.404 363.738,290.738 365.5,291.5C 366.5,291.833 367.167,292.5 367.5,293.5C 368.262,295.262 369.596,296.262 371.5,296.5C 372.262,298.262 373.596,299.262 375.5,299.5C 376.659,301.25 378.326,302.25 380.5,302.5C 380.973,303.906 381.973,304.573 383.5,304.5C 383.973,305.906 384.973,306.573 386.5,306.5C 386.973,307.906 387.973,308.573 389.5,308.5C 389.973,309.906 390.973,310.573 392.5,310.5C 392.973,311.906 393.973,312.573 395.5,312.5C 396.659,314.25 398.326,315.25 400.5,315.5C 400.973,316.906 401.973,317.573 403.5,317.5C 403.973,318.906 404.973,319.573 406.5,319.5C 406.973,320.906 407.973,321.573 409.5,321.5C 409.973,322.906 410.973,323.573 412.5,323.5C 413.659,325.25 415.326,326.25 417.5,326.5C 417.973,327.906 418.973,328.573 420.5,328.5C 420.973,329.906 421.973,330.573 423.5,330.5C 423.973,331.906 424.973,332.573 426.5,332.5C 426.973,333.906 427.973,334.573 429.5,334.5C 431.629,336.95 434.296,338.617 437.5,339.5C 437.973,340.906 438.973,341.573 440.5,341.5C 440.973,342.906 441.973,343.573 443.5,343.5C 443.973,344.906 444.973,345.573 446.5,345.5C 446.973,346.906 447.973,347.573 449.5,347.5C 450.659,349.25 452.326,350.25 454.5,350.5C 454.973,351.906 455.973,352.573 457.5,352.5C 457.973,353.906 458.973,354.573 460.5,354.5C 460.973,355.906 461.973,356.573 463.5,356.5C 463.973,357.906 464.973,358.573 466.5,358.5C 468.629,360.95 471.296,362.617 474.5,363.5C 474.973,364.906 475.973,365.573 477.5,365.5C 477.973,366.906 478.973,367.573 480.5,367.5C 480.973,368.906 481.973,369.573 483.5,369.5C 483.973,370.906 484.973,371.573 486.5,371.5C 487.659,373.25 489.326,374.25 491.5,374.5C 491.973,375.906 492.973,376.573 494.5,376.5C 494.973,377.906 495.973,378.573 497.5,378.5C 497.973,379.906 498.973,380.573 500.5,380.5C 500.973,381.906 501.973,382.573 503.5,382.5C 504.659,384.25 506.326,385.25 508.5,385.5C 508.973,386.906 509.973,387.573 511.5,387.5C 511.973,388.906 512.973,389.573 514.5,389.5C 514.973,390.906 515.973,391.573 517.5,391.5C 517.973,392.906 518.973,393.573 520.5,393.5C 520.973,394.906 521.973,395.573 523.5,395.5C 524.659,397.25 526.326,398.25 528.5,398.5C 528.973,399.906 529.973,400.573 531.5,400.5C 531.973,401.906 532.973,402.573 534.5,402.5C 534.973,403.906 535.973,404.573 537.5,404.5C 537.973,405.906 538.973,406.573 540.5,406.5C 541.659,408.25 543.326,409.25 545.5,409.5C 545.973,410.906 546.973,411.573 548.5,411.5C 548.973,412.906 549.973,413.573 551.5,413.5C 551.973,414.906 552.973,415.573 554.5,415.5C 554.973,416.906 555.973,417.573 557.5,417.5C 559.629,419.95 562.296,421.617 565.5,422.5C 565.973,423.906 566.973,424.573 568.5,424.5C 568.973,425.906 569.973,426.573 571.5,426.5C 571.973,427.906 572.973,428.573 574.5,428.5C 574.973,429.906 575.973,430.573 577.5,430.5C 578.659,432.25 580.326,433.25 582.5,433.5C 582.973,434.906 583.973,435.573 585.5,435.5C 585.973,436.906 586.973,437.573 588.5,437.5C 588.973,438.906 589.973,439.573 591.5,439.5C 591.973,440.906 592.973,441.573 594.5,441.5C 596.629,443.95 599.296,445.617 602.5,446.5C 602.973,447.906 603.973,448.573 605.5,448.5C 605.973,449.906 606.973,450.573 608.5,450.5C 608.973,451.906 609.973,452.573 611.5,452.5C 611.973,453.906 612.973,454.573 614.5,454.5C 615.659,456.25 617.326,457.25 619.5,457.5C 619.973,458.906 620.973,459.573 622.5,459.5C 622.973,460.906 623.973,461.573 625.5,461.5C 625.973,462.906 626.973,463.573 628.5,463.5C 628.973,464.906 629.973,465.573 631.5,465.5C 632.659,467.25 634.326,468.25 636.5,468.5C 636.973,469.906 637.973,470.573 639.5,470.5C 639.973,471.906 640.973,472.573 642.5,472.5C 642.973,473.906 643.973,474.573 645.5,474.5C 646.659,476.25 648.326,477.25 650.5,477.5C 652.833,480.5 655.5,483.167 658.5,485.5C 658.427,487.027 659.094,488.027 660.5,488.5C 661.338,488.842 661.672,489.508 661.5,490.5C 663.219,498.381 663.886,506.381 663.5,514.5C 663.633,519.975 662.966,525.308 661.5,530.5C 659.39,537.28 657.723,544.28 656.5,551.5C 653.928,557.216 651.928,563.216 650.5,569.5C 649.069,570.78 648.402,572.447 648.5,574.5C 646.707,576.426 645.707,578.759 645.5,581.5C 644.008,585.818 642.008,589.818 639.5,593.5C 637.75,594.659 636.75,596.326 636.5,598.5C 636.672,599.492 636.338,600.158 635.5,600.5C 634.094,600.973 633.427,601.973 633.5,603.5C 631.75,604.659 630.75,606.326 630.5,608.5C 629.094,608.973 628.427,609.973 628.5,611.5C 626.738,612.262 625.738,613.596 625.5,615.5C 624.094,615.973 623.427,616.973 623.5,618.5C 621.738,619.262 620.738,620.596 620.5,622.5C 620.5,623.167 620.167,623.5 619.5,623.5C 617.738,624.262 616.738,625.596 616.5,627.5C 616.5,628.167 616.167,628.5 615.5,628.5C 612.757,630.239 610.757,632.573 609.5,635.5C 605.833,639.833 601.833,643.833 597.5,647.5C 594.573,648.757 592.239,650.757 590.5,653.5C 590.5,654.167 590.167,654.5 589.5,654.5C 587.251,655.08 585.585,656.413 584.5,658.5C 582.596,658.738 581.262,659.738 580.5,661.5C 578.596,661.738 577.262,662.738 576.5,664.5C 574.973,664.427 573.973,665.094 573.5,666.5C 571.973,666.427 570.973,667.094 570.5,668.5C 568.973,668.427 567.973,669.094 567.5,670.5C 565.973,670.427 564.973,671.094 564.5,672.5C 564.158,673.338 563.492,673.672 562.5,673.5C 560.973,673.427 559.973,674.094 559.5,675.5C 559.158,676.338 558.492,676.672 557.5,676.5C 551.849,678.659 546.516,681.326 541.5,684.5C 541.158,685.338 540.492,685.672 539.5,685.5C 536.759,685.707 534.426,686.707 532.5,688.5C 531.791,689.404 530.791,689.737 529.5,689.5C 521.949,691.463 514.615,693.796 507.5,696.5C 506.432,697.434 505.099,697.768 503.5,697.5C 495.966,698.42 488.633,699.754 481.5,701.5C 478.359,702.321 475.025,702.821 471.5,703C 450.456,704.613 429.789,703.113 409.5,698.5C 406.781,697.087 403.781,696.42 400.5,696.5C 398.562,694.837 396.228,694.171 393.5,694.5C 390.916,692.528 387.916,691.528 384.5,691.5C 383.209,691.737 382.209,691.404 381.5,690.5C 380.365,688.787 378.698,688.12 376.5,688.5C 375.209,688.737 374.209,688.404 373.5,687.5C 372.817,685.824 371.483,685.157 369.5,685.5C 368.22,684.069 366.553,683.402 364.5,683.5C 361.515,682.674 358.849,681.341 356.5,679.5C 354.664,677.412 352.331,676.079 349.5,675.5C 348.508,675.672 347.842,675.338 347.5,674.5C 347.027,673.094 346.027,672.427 344.5,672.5C 343.341,670.75 341.674,669.75 339.5,669.5C 339.5,669.167 339.5,668.833 339.5,668.5C 340.492,661.352 340.825,654.019 340.5,646.5C 340.833,646.5 341.167,646.5 341.5,646.5C 341.973,647.906 342.973,648.573 344.5,648.5C 346.951,651.277 349.951,653.277 353.5,654.5C 353.973,655.906 354.973,656.573 356.5,656.5C 357.492,656.328 358.158,656.662 358.5,657.5C 359.659,659.25 361.326,660.25 363.5,660.5C 367.818,661.992 371.818,663.992 375.5,666.5C 377.426,668.293 379.759,669.293 382.5,669.5C 383.78,670.931 385.447,671.598 387.5,671.5C 388.791,671.263 389.791,671.596 390.5,672.5C 393.084,674.472 396.084,675.472 399.5,675.5C 401.515,676.924 403.848,677.59 406.5,677.5C 408.292,677.366 409.958,677.699 411.5,678.5C 416.152,680.631 421.152,681.631 426.5,681.5C 433.262,683.153 440.262,683.82 447.5,683.5C 449.5,683.5 451.5,683.5 453.5,683.5C 457.846,683.666 462.179,683.499 466.5,683C 468.058,682.79 469.391,682.29 470.5,681.5C 474.913,681.147 479.246,680.314 483.5,679C 484.056,678.617 484.389,678.117 484.5,677.5C 486.553,677.598 488.22,676.931 489.5,675.5C 490.514,674.326 491.847,673.66 493.5,673.5C 495.674,673.25 497.341,672.25 498.5,670.5C 501.198,670.155 503.198,668.822 504.5,666.5C 511.453,662.548 517.12,657.214 521.5,650.5C 524.471,648.557 526.471,645.891 527.5,642.5C 530.277,640.049 532.277,637.049 533.5,633.5C 535.25,632.341 536.25,630.674 536.5,628.5C 538.659,622.849 541.326,617.516 544.5,612.5C 545.931,611.22 546.598,609.553 546.5,607.5C 546.328,606.508 546.662,605.842 547.5,605.5C 549.213,604.365 549.88,602.698 549.5,600.5C 551.655,598.383 552.655,595.716 552.5,592.5C 554.902,587.899 556.235,582.899 556.5,577.5C 557.651,572.35 557.817,567.016 557,561.5C 556.76,559.148 555.927,557.148 554.5,555.5C 554.539,552.911 553.539,550.911 551.5,549.5C 551.573,547.973 550.906,546.973 549.5,546.5C 548.92,544.251 547.587,542.585 545.5,541.5C 543.833,540.5 542.5,539.167 541.5,537.5C 540.089,535.086 538.089,533.419 535.5,532.5C 535.027,531.094 534.027,530.427 532.5,530.5C 531.738,528.738 530.404,527.738 528.5,527.5C 527.341,525.75 525.674,524.75 523.5,524.5C 523.027,523.094 522.027,522.427 520.5,522.5C 520.027,521.094 519.027,520.427 517.5,520.5C 517.027,519.094 516.027,518.427 514.5,518.5C 514.027,517.094 513.027,516.427 511.5,516.5C 511.027,515.094 510.027,514.427 508.5,514.5C 507.341,512.75 505.674,511.75 503.5,511.5C 503.027,510.094 502.027,509.427 500.5,509.5C 500.027,508.094 499.027,507.427 497.5,507.5C 497.027,506.094 496.027,505.427 494.5,505.5C 494.027,504.094 493.027,503.427 491.5,503.5C 491.027,502.094 490.027,501.427 488.5,501.5C 488.027,500.094 487.027,499.427 485.5,499.5C 484.341,497.75 482.674,496.75 480.5,496.5C 480.027,495.094 479.027,494.427 477.5,494.5C 477.027,493.094 476.027,492.427 474.5,492.5C 474.027,491.094 473.027,490.427 471.5,490.5C 471.027,489.094 470.027,488.427 468.5,488.5C 468.027,487.094 467.027,486.427 465.5,486.5C 464.341,484.75 462.674,483.75 460.5,483.5C 460.027,482.094 459.027,481.427 457.5,481.5C 457.027,480.094 456.027,479.427 454.5,479.5C 454.027,478.094 453.027,477.427 451.5,477.5C 451.027,476.094 450.027,475.427 448.5,475.5C 448.027,474.094 447.027,473.427 445.5,473.5C 445.027,472.094 444.027,471.427 442.5,471.5C 441.341,469.75 439.674,468.75 437.5,468.5C 437.027,467.094 436.027,466.427 434.5,466.5C 434.027,465.094 433.027,464.427 431.5,464.5C 431.027,463.094 430.027,462.427 428.5,462.5C 428.027,461.094 427.027,460.427 425.5,460.5C 425.027,459.094 424.027,458.427 422.5,458.5C 421.341,456.75 419.674,455.75 417.5,455.5C 417.027,454.094 416.027,453.427 414.5,453.5C 414.027,452.094 413.027,451.427 411.5,451.5C 411.027,450.094 410.027,449.427 408.5,449.5C 408.027,448.094 407.027,447.427 405.5,447.5C 405.027,446.094 404.027,445.427 402.5,445.5C 402.027,444.094 401.027,443.427 399.5,443.5C 398.341,441.75 396.674,440.75 394.5,440.5C 394.027,439.094 393.027,438.427 391.5,438.5C 391.027,437.094 390.027,436.427 388.5,436.5C 388.027,435.094 387.027,434.427 385.5,434.5C 385.027,433.094 384.027,432.427 382.5,432.5C 382.027,431.094 381.027,430.427 379.5,430.5C 378.341,428.75 376.674,427.75 374.5,427.5C 374.027,426.094 373.027,425.427 371.5,425.5C 371.027,424.094 370.027,423.427 368.5,423.5C 368.027,422.094 367.027,421.427 365.5,421.5C 365.027,420.094 364.027,419.427 362.5,419.5C 362.027,418.094 361.027,417.427 359.5,417.5C 359.027,416.094 358.027,415.427 356.5,415.5C 355.341,413.75 353.674,412.75 351.5,412.5C 351.027,411.094 350.027,410.427 348.5,410.5C 348.167,409.833 347.833,409.167 347.5,408.5C 347.832,352.664 347.499,296.998 346.5,241.5C 346.5,241.167 346.5,240.833 346.5,240.5C 348.404,240.262 349.738,239.262 350.5,237.5C 354.732,235.6 358.399,232.933 361.5,229.5C 363.404,229.262 364.738,228.262 365.5,226.5C 367.404,226.262 368.738,225.262 369.5,223.5C 371.404,223.262 372.738,222.262 373.5,220.5C 376.37,219.567 378.704,217.9 380.5,215.5C 382.404,215.262 383.738,214.262 384.5,212.5C 386.404,212.262 387.738,211.262 388.5,209.5C 390.404,209.262 391.738,208.262 392.5,206.5C 395.37,205.567 397.704,203.9 399.5,201.5C 401.404,201.262 402.738,200.262 403.5,198.5C 405.404,198.262 406.738,197.262 407.5,195.5C 409.404,195.262 410.738,194.262 411.5,192.5C 414.37,191.567 416.704,189.9 418.5,187.5C 420.404,187.262 421.738,186.262 422.5,184.5C 424.404,184.262 425.738,183.262 426.5,181.5C 428.404,181.262 429.738,180.262 430.5,178.5C 433.37,177.567 435.704,175.9 437.5,173.5C 439.404,173.262 440.738,172.262 441.5,170.5C 443.404,170.262 444.738,169.262 445.5,167.5C 447.404,167.262 448.738,166.262 449.5,164.5C 452.37,163.567 454.704,161.9 456.5,159.5C 458.404,159.262 459.738,158.262 460.5,156.5C 462.404,156.262 463.738,155.262 464.5,153.5C 466.404,153.262 467.738,152.262 468.5,150.5C 471.37,149.567 473.704,147.9 475.5,145.5C 477.404,145.262 478.738,144.262 479.5,142.5C 481.404,142.262 482.738,141.262 483.5,139.5C 485.404,139.262 486.738,138.262 487.5,136.5C 490.37,135.567 492.704,133.9 494.5,131.5C 496.404,131.262 497.738,130.262 498.5,128.5C 500.404,128.262 501.738,127.262 502.5,125.5C 504.404,125.262 505.738,124.262 506.5,122.5C 509.37,121.567 511.704,119.9 513.5,117.5C 515.404,117.262 516.738,116.262 517.5,114.5C 519.404,114.262 520.738,113.262 521.5,111.5C 523.404,111.262 524.738,110.262 525.5,108.5C 528.37,107.567 530.704,105.9 532.5,103.5C 533.5,102.167 534.5,102.167 535.5,103.5 Z M 642.5,511.5 C 643.434,512.568 643.768,513.901 643.5,515.5C 642.617,520.132 641.95,524.798 641.5,529.5C 639.88,534.646 638.547,539.98 637.5,545.5C 635.327,551.353 633.327,557.353 631.5,563.5C 630.662,563.842 630.328,564.508 630.5,565.5C 629.069,566.78 628.402,568.447 628.5,570.5C 625.659,574.849 623.326,579.516 621.5,584.5C 619.75,585.659 618.75,587.326 618.5,589.5C 616.75,590.659 615.75,592.326 615.5,594.5C 614.094,594.973 613.427,595.973 613.5,597.5C 612.094,597.973 611.427,598.973 611.5,600.5C 610.094,600.973 609.427,601.973 609.5,603.5C 607.738,604.262 606.738,605.596 606.5,607.5C 597.895,617.442 588.895,627.108 579.5,636.5C 576.911,637.419 574.911,639.086 573.5,641.5C 571.596,641.738 570.262,642.738 569.5,644.5C 567.596,644.738 566.262,645.738 565.5,647.5C 561.975,648.759 558.975,650.759 556.5,653.5C 554.973,653.427 553.973,654.094 553.5,655.5C 550.669,656.079 548.336,657.412 546.5,659.5C 543.515,660.326 540.849,661.659 538.5,663.5C 537.662,663.158 537.328,662.492 537.5,661.5C 538.906,661.027 539.573,660.027 539.5,658.5C 540.674,657.486 541.34,656.153 541.5,654.5C 543.25,653.341 544.25,651.674 544.5,649.5C 546.008,647.819 547.008,645.819 547.5,643.5C 550.874,639.419 553.207,634.753 554.5,629.5C 556.008,627.819 557.008,625.819 557.5,623.5C 559.625,620.912 560.958,617.912 561.5,614.5C 562.338,614.158 562.672,613.492 562.5,612.5C 563.931,611.22 564.598,609.553 564.5,607.5C 565.338,607.158 565.672,606.492 565.5,605.5C 566.931,604.22 567.598,602.553 567.5,600.5C 569.293,598.574 570.293,596.241 570.5,593.5C 571.931,592.22 572.598,590.553 572.5,588.5C 573.404,587.791 573.737,586.791 573.5,585.5C 574.931,584.22 575.598,582.553 575.5,580.5C 577.267,578.208 578.267,575.542 578.5,572.5C 579.404,571.791 579.737,570.791 579.5,569.5C 581.058,565.395 583.391,561.729 586.5,558.5C 587.167,558.5 587.5,558.167 587.5,557.5C 589.749,556.92 591.415,555.587 592.5,553.5C 593.167,553.5 593.5,553.167 593.5,552.5C 595.749,551.92 597.415,550.587 598.5,548.5C 599.167,548.5 599.5,548.167 599.5,547.5C 601.749,546.92 603.415,545.587 604.5,543.5C 605.167,543.5 605.5,543.167 605.5,542.5C 607.749,541.92 609.415,540.587 610.5,538.5C 611.167,538.5 611.5,538.167 611.5,537.5C 614.089,536.581 616.089,534.914 617.5,532.5C 620.089,531.581 622.089,529.914 623.5,527.5C 626.089,526.581 628.089,524.914 629.5,522.5C 630.167,522.5 630.5,522.167 630.5,521.5C 632.749,520.92 634.415,519.587 635.5,517.5C 636.167,517.5 636.5,517.167 636.5,516.5C 638.749,515.92 640.415,514.587 641.5,512.5C 642.167,512.5 642.5,512.167 642.5,511.5 Z"/></g>
<g><path style="opacity:0.439" fill="#2d2822" d="M 535.5,103.5 C 537.262,104.262 538.262,105.596 538.5,107.5C 536.738,106.738 535.738,105.404 535.5,103.5 Z"/></g>
<g><path style="opacity:0.439" fill="#312b23" d="M 532.5,103.5 C 530.704,105.9 528.37,107.567 525.5,108.5C 527.296,106.1 529.63,104.433 532.5,103.5 Z"/></g>
<g><path style="opacity:0.467" fill="#302a23" d="M 525.5,108.5 C 524.738,110.262 523.404,111.262 521.5,111.5C 522.262,109.738 523.596,108.738 525.5,108.5 Z"/></g>
<g><path style="opacity:0.412" fill="#2e2823" d="M 538.5,107.5 C 539.906,107.973 540.573,108.973 540.5,110.5C 539.094,110.027 538.427,109.027 538.5,107.5 Z"/></g>
<g><path style="opacity:0.506" fill="#332c24" d="M 521.5,111.5 C 520.738,113.262 519.404,114.262 517.5,114.5C 518.262,112.738 519.596,111.738 521.5,111.5 Z"/></g>
<g><path style="opacity:0.545" fill="#372f24" d="M 540.5,110.5 C 542.262,111.262 543.262,112.596 543.5,114.5C 541.738,113.738 540.738,112.404 540.5,110.5 Z"/></g>
<g><path style="opacity:0.533" fill="#362e24" d="M 517.5,114.5 C 516.738,116.262 515.404,117.262 513.5,117.5C 514.262,115.738 515.596,114.738 517.5,114.5 Z"/></g>
<g><path style="opacity:0.506" fill="#352d24" d="M 543.5,114.5 C 545.519,115.538 545.853,116.872 544.5,118.5C 544.167,117.167 543.833,115.833 543.5,114.5 Z"/></g>
<g><path style="opacity:0.333" fill="#282422" d="M 544.5,118.5 C 543.738,120.262 542.404,121.262 540.5,121.5C 541.262,119.738 542.596,118.738 544.5,118.5 Z"/></g>
<g><path style="opacity:0.439" fill="#312b23" d="M 513.5,117.5 C 511.704,119.9 509.37,121.567 506.5,122.5C 508.296,120.1 510.63,118.433 513.5,117.5 Z"/></g>
<g><path style="opacity:0.333" fill="#262321" d="M 540.5,121.5 C 539.738,123.262 538.404,124.262 536.5,124.5C 537.262,122.738 538.596,121.738 540.5,121.5 Z"/></g>
<g><path style="opacity:0.467" fill="#302a23" d="M 506.5,122.5 C 505.738,124.262 504.404,125.262 502.5,125.5C 503.262,123.738 504.596,122.738 506.5,122.5 Z"/></g>
<g><path style="opacity:0.333" fill="#272322" d="M 536.5,124.5 C 536.027,125.906 535.027,126.573 533.5,126.5C 533.973,125.094 534.973,124.427 536.5,124.5 Z"/></g>
<g><path style="opacity:0.506" fill="#332c24" d="M 502.5,125.5 C 501.738,127.262 500.404,128.262 498.5,128.5C 499.262,126.738 500.596,125.738 502.5,125.5 Z"/></g>
<g><path style="opacity:0.333" fill="#262221" d="M 532.5,127.5 C 532.027,128.906 531.027,129.573 529.5,129.5C 529.973,128.094 530.973,127.427 532.5,127.5 Z"/></g>
<g><path style="opacity:0.533" fill="#362f24" d="M 498.5,128.5 C 497.738,130.262 496.404,131.262 494.5,131.5C 495.262,129.738 496.596,128.738 498.5,128.5 Z"/></g>
<g><path style="opacity:0.333" fill="#2a2522" d="M 529.5,129.5 C 528.738,131.262 527.404,132.262 525.5,132.5C 526.262,130.738 527.596,129.738 529.5,129.5 Z"/></g>
<g><path style="opacity:0.333" fill="#282422" d="M 525.5,132.5 C 524.738,134.262 523.404,135.262 521.5,135.5C 522.262,133.738 523.596,132.738 525.5,132.5 Z"/></g>
<g><path style="opacity:0.439" fill="#322b23" d="M 494.5,131.5 C 492.704,133.9 490.37,135.567 487.5,136.5C 489.296,134.1 491.63,132.433 494.5,131.5 Z"/></g>
<g><path style="opacity:0.333" fill="#272321" d="M 521.5,135.5 C 520.738,137.262 519.404,138.262 517.5,138.5C 518.262,136.738 519.596,135.738 521.5,135.5 Z"/></g>
<g><path style="opacity:0.478" fill="#302a23" d="M 487.5,136.5 C 486.738,138.262 485.404,139.262 483.5,139.5C 484.262,137.738 485.596,136.738 487.5,136.5 Z"/></g>
<g><path style="opacity:0.333" fill="#282422" d="M 517.5,138.5 C 517.027,139.906 516.027,140.573 514.5,140.5C 514.973,139.094 515.973,138.427 517.5,138.5 Z"/></g>
<g><path style="opacity:0.506" fill="#332c24" d="M 483.5,139.5 C 482.738,141.262 481.404,142.262 479.5,142.5C 480.262,140.738 481.596,139.738 483.5,139.5 Z"/></g>
<g><path style="opacity:0.333" fill="#262321" d="M 513.5,141.5 C 513.027,142.906 512.027,143.573 510.5,143.5C 510.973,142.094 511.973,141.427 513.5,141.5 Z"/></g>
<g><path style="opacity:0.545" fill="#372f24" d="M 479.5,142.5 C 478.738,144.262 477.404,145.262 475.5,145.5C 476.262,143.738 477.596,142.738 479.5,142.5 Z"/></g>
<g><path style="opacity:0.333" fill="#2b2622" d="M 510.5,143.5 C 509.738,145.262 508.404,146.262 506.5,146.5C 507.262,144.738 508.596,143.738 510.5,143.5 Z"/></g>
<g><path style="opacity:0.333" fill="#292522" d="M 506.5,146.5 C 505.738,148.262 504.404,149.262 502.5,149.5C 503.262,147.738 504.596,146.738 506.5,146.5 Z"/></g>
<g><path style="opacity:0.439" fill="#322b23" d="M 475.5,145.5 C 473.704,147.9 471.37,149.567 468.5,150.5C 470.296,148.1 472.63,146.433 475.5,145.5 Z"/></g>
<g><path style="opacity:0.333" fill="#282322" d="M 502.5,149.5 C 501.738,151.262 500.404,152.262 498.5,152.5C 499.262,150.738 500.596,149.738 502.5,149.5 Z"/></g>
<g><path style="opacity:0.478" fill="#302a23" d="M 468.5,150.5 C 467.738,152.262 466.404,153.262 464.5,153.5C 465.262,151.738 466.596,150.738 468.5,150.5 Z"/></g>
<g><path style="opacity:0.333" fill="#262321" d="M 498.5,152.5 C 497.738,154.262 496.404,155.262 494.5,155.5C 495.262,153.738 496.596,152.738 498.5,152.5 Z"/></g>
<g><path style="opacity:0.506" fill="#332c24" d="M 464.5,153.5 C 463.738,155.262 462.404,156.262 460.5,156.5C 461.262,154.738 462.596,153.738 464.5,153.5 Z"/></g>
<g><path style="opacity:0.333" fill="#272322" d="M 494.5,155.5 C 494.027,156.906 493.027,157.573 491.5,157.5C 491.973,156.094 492.973,155.427 494.5,155.5 Z"/></g>
<g><path style="opacity:0.545" fill="#372f24" d="M 460.5,156.5 C 459.738,158.262 458.404,159.262 456.5,159.5C 457.262,157.738 458.596,156.738 460.5,156.5 Z"/></g>
<g><path style="opacity:0.333" fill="#262221" d="M 490.5,158.5 C 490.027,159.906 489.027,160.573 487.5,160.5C 487.973,159.094 488.973,158.427 490.5,158.5 Z"/></g>
<g><path style="opacity:0.333" fill="#2a2522" d="M 487.5,160.5 C 486.738,162.262 485.404,163.262 483.5,163.5C 484.262,161.738 485.596,160.738 487.5,160.5 Z"/></g>
<g><path style="opacity:0.455" fill="#322c23" d="M 456.5,159.5 C 454.704,161.9 452.37,163.567 449.5,164.5C 451.296,162.1 453.63,160.433 456.5,159.5 Z"/></g>
<g><path style="opacity:0.333" fill="#282422" d="M 483.5,163.5 C 482.738,165.262 481.404,166.262 479.5,166.5C 480.262,164.738 481.596,163.738 483.5,163.5 Z"/></g>
<g><path style="opacity:0.478" fill="#302a23" d="M 449.5,164.5 C 448.738,166.262 447.404,167.262 445.5,167.5C 446.262,165.738 447.596,164.738 449.5,164.5 Z"/></g>
<g><path style="opacity:0.333" fill="#272321" d="M 479.5,166.5 C 478.738,168.262 477.404,169.262 475.5,169.5C 476.262,167.738 477.596,166.738 479.5,166.5 Z"/></g>
<g><path style="opacity:0.506" fill="#342c24" d="M 445.5,167.5 C 444.738,169.262 443.404,170.262 441.5,170.5C 442.262,168.738 443.596,167.738 445.5,167.5 Z"/></g>
<g><path style="opacity:0.333" fill="#282422" d="M 475.5,169.5 C 475.027,170.906 474.027,171.573 472.5,171.5C 472.973,170.094 473.973,169.427 475.5,169.5 Z"/></g>
<g><path style="opacity:0.545" fill="#372f24" d="M 441.5,170.5 C 440.738,172.262 439.404,173.262 437.5,173.5C 438.262,171.738 439.596,170.738 441.5,170.5 Z"/></g>
<g><path style="opacity:0.333" fill="#262321" d="M 471.5,172.5 C 471.027,173.906 470.027,174.573 468.5,174.5C 468.973,173.094 469.973,172.427 471.5,172.5 Z"/></g>
<g><path style="opacity:0.333" fill="#2b2622" d="M 468.5,174.5 C 467.738,176.262 466.404,177.262 464.5,177.5C 465.262,175.738 466.596,174.738 468.5,174.5 Z"/></g>
<g><path style="opacity:0.455" fill="#322c23" d="M 437.5,173.5 C 435.704,175.9 433.37,177.567 430.5,178.5C 432.296,176.1 434.63,174.433 437.5,173.5 Z"/></g>
<g><path style="opacity:0.333" fill="#292522" d="M 464.5,177.5 C 463.738,179.262 462.404,180.262 460.5,180.5C 461.262,178.738 462.596,177.738 464.5,177.5 Z"/></g>
<g><path style="opacity:0.478" fill="#302a23" d="M 430.5,178.5 C 429.738,180.262 428.404,181.262 426.5,181.5C 427.262,179.738 428.596,178.738 430.5,178.5 Z"/></g>
<g><path style="opacity:0.333" fill="#282322" d="M 460.5,180.5 C 459.738,182.262 458.404,183.262 456.5,183.5C 457.262,181.738 458.596,180.738 460.5,180.5 Z"/></g>
<g><path style="opacity:0.506" fill="#342d24" d="M 426.5,181.5 C 425.738,183.262 424.404,184.262 422.5,184.5C 423.262,182.738 424.596,181.738 426.5,181.5 Z"/></g>
<g><path style="opacity:0.333" fill="#262321" d="M 456.5,183.5 C 455.738,185.262 454.404,186.262 452.5,186.5C 453.262,184.738 454.596,183.738 456.5,183.5 Z"/></g>
<g><path style="opacity:0.545" fill="#372f24" d="M 422.5,184.5 C 421.738,186.262 420.404,187.262 418.5,187.5C 419.262,185.738 420.596,184.738 422.5,184.5 Z"/></g>
<g><path style="opacity:0.333" fill="#272322" d="M 452.5,186.5 C 452.027,187.906 451.027,188.573 449.5,188.5C 449.973,187.094 450.973,186.427 452.5,186.5 Z"/></g>
<g><path style="opacity:0.455" fill="#322c23" d="M 418.5,187.5 C 416.704,189.9 414.37,191.567 411.5,192.5C 413.296,190.1 415.63,188.433 418.5,187.5 Z"/></g>
<g><path style="opacity:0.333" fill="#262221" d="M 448.5,189.5 C 448.027,190.906 447.027,191.573 445.5,191.5C 445.973,190.094 446.973,189.427 448.5,189.5 Z"/></g>
<g><path style="opacity:0.333" fill="#2a2522" d="M 445.5,191.5 C 444.738,193.262 443.404,194.262 441.5,194.5C 442.262,192.738 443.596,191.738 445.5,191.5 Z"/></g>
<g><path style="opacity:0.478" fill="#302a23" d="M 411.5,192.5 C 410.738,194.262 409.404,195.262 407.5,195.5C 408.262,193.738 409.596,192.738 411.5,192.5 Z"/></g>
<g><path style="opacity:0.333" fill="#282422" d="M 441.5,194.5 C 440.738,196.262 439.404,197.262 437.5,197.5C 438.262,195.738 439.596,194.738 441.5,194.5 Z"/></g>
<g><path style="opacity:0.506" fill="#342c24" d="M 407.5,195.5 C 406.738,197.262 405.404,198.262 403.5,198.5C 404.262,196.738 405.596,195.738 407.5,195.5 Z"/></g>
<g><path style="opacity:0.333" fill="#272321" d="M 437.5,197.5 C 436.738,199.262 435.404,200.262 433.5,200.5C 434.262,198.738 435.596,197.738 437.5,197.5 Z"/></g>
<g><path style="opacity:0.545" fill="#372f24" d="M 403.5,198.5 C 402.738,200.262 401.404,201.262 399.5,201.5C 400.262,199.738 401.596,198.738 403.5,198.5 Z"/></g>
<g><path style="opacity:0.333" fill="#282422" d="M 433.5,200.5 C 433.027,201.906 432.027,202.573 430.5,202.5C 430.973,201.094 431.973,200.427 433.5,200.5 Z"/></g>
<g><path style="opacity:0.439" fill="#322b23" d="M 399.5,201.5 C 397.704,203.9 395.37,205.567 392.5,206.5C 394.296,204.1 396.63,202.433 399.5,201.5 Z"/></g>
<g><path style="opacity:0.333" fill="#262321" d="M 429.5,203.5 C 429.027,204.906 428.027,205.573 426.5,205.5C 426.973,204.094 427.973,203.427 429.5,203.5 Z"/></g>
<g><path style="opacity:0.333" fill="#2b2622" d="M 426.5,205.5 C 425.738,207.262 424.404,208.262 422.5,208.5C 423.262,206.738 424.596,205.738 426.5,205.5 Z"/></g>
<g><path style="opacity:0.478" fill="#302a23" d="M 392.5,206.5 C 391.738,208.262 390.404,209.262 388.5,209.5C 389.262,207.738 390.596,206.738 392.5,206.5 Z"/></g>
<g><path style="opacity:0.333" fill="#292522" d="M 422.5,208.5 C 421.738,210.262 420.404,211.262 418.5,211.5C 419.262,209.738 420.596,208.738 422.5,208.5 Z"/></g>
<g><path style="opacity:0.506" fill="#332c24" d="M 388.5,209.5 C 387.738,211.262 386.404,212.262 384.5,212.5C 385.262,210.738 386.596,209.738 388.5,209.5 Z"/></g>
<g><path style="opacity:0.333" fill="#282322" d="M 418.5,211.5 C 417.738,213.262 416.404,214.262 414.5,214.5C 415.262,212.738 416.596,211.738 418.5,211.5 Z"/></g>
<g><path style="opacity:0.533" fill="#362f24" d="M 384.5,212.5 C 383.738,214.262 382.404,215.262 380.5,215.5C 381.262,213.738 382.596,212.738 384.5,212.5 Z"/></g>
<g><path style="opacity:0.333" fill="#262321" d="M 414.5,214.5 C 413.738,216.262 412.404,217.262 410.5,217.5C 411.262,215.738 412.596,214.738 414.5,214.5 Z"/></g>
<g><path style="opacity:0.439" fill="#322b23" d="M 380.5,215.5 C 378.704,217.9 376.37,219.567 373.5,220.5C 375.296,218.1 377.63,216.433 380.5,215.5 Z"/></g>
<g><path style="opacity:0.333" fill="#272322" d="M 410.5,217.5 C 410.027,218.906 409.027,219.573 407.5,219.5C 407.973,218.094 408.973,217.427 410.5,217.5 Z"/></g>
<g><path style="opacity:0.478" fill="#302a23" d="M 373.5,220.5 C 372.738,222.262 371.404,223.262 369.5,223.5C 370.262,221.738 371.596,220.738 373.5,220.5 Z"/></g>
<g><path style="opacity:0.333" fill="#262221" d="M 406.5,220.5 C 406.027,221.906 405.027,222.573 403.5,222.5C 403.973,221.094 404.973,220.427 406.5,220.5 Z"/></g>
<g><path style="opacity:0.333" fill="#2a2522" d="M 403.5,222.5 C 402.738,224.262 401.404,225.262 399.5,225.5C 400.262,223.738 401.596,222.738 403.5,222.5 Z"/></g>
<g><path style="opacity:0.506" fill="#332c24" d="M 369.5,223.5 C 368.738,225.262 367.404,226.262 365.5,226.5C 366.262,224.738 367.596,223.738 369.5,223.5 Z"/></g>
<g><path style="opacity:0.333" fill="#282422" d="M 399.5,225.5 C 398.738,227.262 397.404,228.262 395.5,228.5C 396.262,226.738 397.596,225.738 399.5,225.5 Z"/></g>
<g><path style="opacity:0.533" fill="#362e24" d="M 365.5,226.5 C 364.738,228.262 363.404,229.262 361.5,229.5C 362.262,227.738 363.596,226.738 365.5,226.5 Z"/></g>
<g><path style="opacity:0.333" fill="#272321" d="M 395.5,228.5 C 394.738,230.262 393.404,231.262 391.5,231.5C 392.262,229.738 393.596,228.738 395.5,228.5 Z"/></g>
<g><path style="opacity:0.439" fill="#342c24" d="M 361.5,229.5 C 358.399,232.933 354.732,235.6 350.5,237.5C 353.601,234.067 357.268,231.4 361.5,229.5 Z"/></g>
<g><path style="opacity:0.333" fill="#282422" d="M 391.5,231.5 C 391.027,232.906 390.027,233.573 388.5,233.5C 388.973,232.094 389.973,231.427 391.5,231.5 Z"/></g>
<g><path style="opacity:0.333" fill="#262321" d="M 387.5,234.5 C 387.027,235.906 386.027,236.573 384.5,236.5C 384.973,235.094 385.973,234.427 387.5,234.5 Z"/></g>
<g><path style="opacity:0.333" fill="#2b2622" d="M 384.5,236.5 C 383.738,238.262 382.404,239.262 380.5,239.5C 381.262,237.738 382.596,236.738 384.5,236.5 Z"/></g>
<g><path style="opacity:0.506" fill="#332c24" d="M 350.5,237.5 C 349.738,239.262 348.404,240.262 346.5,240.5C 347.262,238.738 348.596,237.738 350.5,237.5 Z"/></g>
<g><path style="opacity:0.333" fill="#292522" d="M 380.5,239.5 C 379.738,241.262 378.404,242.262 376.5,242.5C 377.262,240.738 378.596,239.738 380.5,239.5 Z"/></g>
<g><path style="opacity:0.533" fill="#362f24" d="M 346.5,240.5 C 346.5,240.833 346.5,241.167 346.5,241.5C 345.395,242.6 344.062,243.267 342.5,243.5C 343.262,241.738 344.596,240.738 346.5,240.5 Z"/></g>
<g><path style="opacity:0.333" fill="#282322" d="M 376.5,242.5 C 375.738,244.262 374.404,245.262 372.5,245.5C 373.262,243.738 374.596,242.738 376.5,242.5 Z"/></g>
<g><path style="opacity:0.439" fill="#342d24" d="M 342.5,243.5 C 339.399,246.933 335.732,249.6 331.5,251.5C 334.601,248.067 338.268,245.4 342.5,243.5 Z"/></g>
<g><path style="opacity:1" fill="#a98536" d="M 346.5,241.5 C 347.499,296.998 347.832,352.664 347.5,408.5C 346.833,408.5 346.167,408.5 345.5,408.5C 345.027,407.094 344.027,406.427 342.5,406.5C 342.027,405.094 341.027,404.427 339.5,404.5C 339.027,403.094 338.027,402.427 336.5,402.5C 335.341,400.75 333.674,399.75 331.5,399.5C 331.027,398.094 330.027,397.427 328.5,397.5C 328.027,396.094 327.027,395.427 325.5,395.5C 325.027,394.094 324.027,393.427 322.5,393.5C 322.027,392.094 321.027,391.427 319.5,391.5C 319.027,390.094 318.027,389.427 316.5,389.5C 316.167,388.833 315.833,388.167 315.5,387.5C 316.833,346.5 316.833,305.5 315.5,264.5C 315.833,263.833 316.167,263.167 316.5,262.5C 320.732,260.6 324.399,257.933 327.5,254.5C 329.404,254.262 330.738,253.262 331.5,251.5C 335.732,249.6 339.399,246.933 342.5,243.5C 344.062,243.267 345.395,242.6 346.5,241.5 Z"/></g>
<g><path style="opacity:0.333" fill="#262321" d="M 372.5,245.5 C 371.738,247.262 370.404,248.262 368.5,248.5C 369.262,246.738 370.596,245.738 372.5,245.5 Z"/></g>
<g><path style="opacity:0.506" fill="#332c24" d="M 331.5,251.5 C 330.738,253.262 329.404,254.262 327.5,254.5C 328.262,252.738 329.596,251.738 331.5,251.5 Z"/></g>
<g><path style="opacity:0.333" fill="#272322" d="M 364.5,252.5 C 364.573,254.027 363.906,255.027 362.5,255.5C 362.427,253.973 363.094,252.973 364.5,252.5 Z"/></g>
<g><path style="opacity:0.412" fill="#312a23" d="M 327.5,254.5 C 324.399,257.933 320.732,260.6 316.5,262.5C 319.601,259.067 323.268,256.4 327.5,254.5 Z"/></g>
<g><path style="opacity:0.339" fill="#2e2823" d="M 362.5,255.5 C 360.201,260.398 358.534,265.398 357.5,270.5C 357,264.668 358.666,259.668 362.5,255.5 Z"/></g>
<g><path style="opacity:0.467" fill="#302a23" d="M 316.5,262.5 C 316.167,263.167 315.833,263.833 315.5,264.5C 314.609,265.11 313.609,265.443 312.5,265.5C 313.262,263.738 314.596,262.738 316.5,262.5 Z"/></g>
<g><path style="opacity:0.506" fill="#332d24" d="M 312.5,265.5 C 311.738,267.262 310.404,268.262 308.5,268.5C 309.262,266.738 310.596,265.738 312.5,265.5 Z"/></g>
<g><path style="opacity:0.412" fill="#322b24" d="M 308.5,268.5 C 304.041,272.897 299.041,276.564 293.5,279.5C 297.959,275.103 302.959,271.436 308.5,268.5 Z"/></g>
<g><path style="opacity:1" fill="#af8b3b" d="M 315.5,264.5 C 316.833,305.5 316.833,346.5 315.5,387.5C 313.313,386.242 310.98,385.242 308.5,384.5C 308.027,383.094 307.027,382.427 305.5,382.5C 305.027,381.094 304.027,380.427 302.5,380.5C 302.027,379.094 301.027,378.427 299.5,378.5C 299.027,377.094 298.027,376.427 296.5,376.5C 296.027,375.094 295.027,374.427 293.5,374.5C 290.35,371.421 286.683,369.087 282.5,367.5C 282.027,366.094 281.027,365.427 279.5,365.5C 279.027,364.094 278.027,363.427 276.5,363.5C 276.027,362.094 275.027,361.427 273.5,361.5C 273.027,360.094 272.027,359.427 270.5,359.5C 270.027,358.094 269.027,357.427 267.5,357.5C 267.027,356.094 266.027,355.427 264.5,355.5C 261.805,352.474 259.138,349.474 256.5,346.5C 255.662,346.158 255.328,345.492 255.5,344.5C 255.072,341.215 254.072,338.215 252.5,335.5C 250.95,328.546 251.616,321.879 254.5,315.5C 256.008,313.819 257.008,311.819 257.5,309.5C 258.906,309.027 259.573,308.027 259.5,306.5C 264.354,301.921 269.354,297.587 274.5,293.5C 280.041,290.564 285.041,286.897 289.5,282.5C 291.404,282.262 292.738,281.262 293.5,279.5C 299.041,276.564 304.041,272.897 308.5,268.5C 310.404,268.262 311.738,267.262 312.5,265.5C 313.609,265.443 314.609,265.11 315.5,264.5 Z"/></g>
<g><path style="opacity:0.506" fill="#332d24" d="M 293.5,279.5 C 292.738,281.262 291.404,282.262 289.5,282.5C 290.262,280.738 291.596,279.738 293.5,279.5 Z"/></g>
<g><path style="opacity:0.339" fill="#2a2522" d="M 359.5,281.5 C 361.008,283.181 362.008,285.181 362.5,287.5C 360.461,286.089 359.461,284.089 359.5,281.5 Z"/></g>
<g><path style="opacity:0.427" fill="#322b24" d="M 289.5,282.5 C 285.041,286.897 280.041,290.564 274.5,293.5C 278.959,289.103 283.959,285.436 289.5,282.5 Z"/></g>
<g><path style="opacity:0.412" fill="#2a2522" d="M 362.5,287.5 C 364.262,288.262 365.262,289.596 365.5,291.5C 363.738,290.738 362.738,289.404 362.5,287.5 Z"/></g>
<g><path style="opacity:0.333" fill="#2a2522" d="M 367.5,293.5 C 369.404,293.738 370.738,294.738 371.5,296.5C 369.596,296.262 368.262,295.262 367.5,293.5 Z"/></g>
<g><path style="opacity:0.4" fill="#2e2923" d="M 274.5,293.5 C 269.354,297.587 264.354,301.921 259.5,306.5C 263.071,300.543 268.071,296.21 274.5,293.5 Z"/></g>
<g><path style="opacity:0.333" fill="#2b2622" d="M 371.5,296.5 C 373.404,296.738 374.738,297.738 375.5,299.5C 373.596,299.262 372.262,298.262 371.5,296.5 Z"/></g>
<g><path style="opacity:0.333" fill="#292522" d="M 375.5,299.5 C 377.674,299.75 379.341,300.75 380.5,302.5C 378.326,302.25 376.659,301.25 375.5,299.5 Z"/></g>
<g><path style="opacity:0.333" fill="#262321" d="M 380.5,302.5 C 382.027,302.427 383.027,303.094 383.5,304.5C 381.973,304.573 380.973,303.906 380.5,302.5 Z"/></g>
<g><path style="opacity:0.333" fill="#282422" d="M 383.5,304.5 C 385.027,304.427 386.027,305.094 386.5,306.5C 384.973,306.573 383.973,305.906 383.5,304.5 Z"/></g>
<g><path style="opacity:0.333" fill="#2a2522" d="M 386.5,306.5 C 388.027,306.427 389.027,307.094 389.5,308.5C 387.973,308.573 386.973,307.906 386.5,306.5 Z"/></g>
<g><path style="opacity:0.427" fill="#312b24" d="M 259.5,306.5 C 259.573,308.027 258.906,309.027 257.5,309.5C 257.427,307.973 258.094,306.973 259.5,306.5 Z"/></g>
<g><path style="opacity:0.333" fill="#2c2722" d="M 389.5,308.5 C 391.027,308.427 392.027,309.094 392.5,310.5C 390.973,310.573 389.973,309.906 389.5,308.5 Z"/></g>
<g><path style="opacity:0.333" fill="#2e2823" d="M 392.5,310.5 C 394.027,310.427 395.027,311.094 395.5,312.5C 393.973,312.573 392.973,311.906 392.5,310.5 Z"/></g>
<g><path style="opacity:0.333" fill="#2b2623" d="M 257.5,309.5 C 257.008,311.819 256.008,313.819 254.5,315.5C 254.461,312.911 255.461,310.911 257.5,309.5 Z"/></g>
<g><path style="opacity:0.333" fill="#2a2522" d="M 395.5,312.5 C 397.674,312.75 399.341,313.75 400.5,315.5C 398.326,315.25 396.659,314.25 395.5,312.5 Z"/></g>
<g><path style="opacity:0.333" fill="#272322" d="M 400.5,315.5 C 402.027,315.427 403.027,316.094 403.5,317.5C 401.973,317.573 400.973,316.906 400.5,315.5 Z"/></g>
<g><path style="opacity:0.333" fill="#292522" d="M 403.5,317.5 C 405.027,317.427 406.027,318.094 406.5,319.5C 404.973,319.573 403.973,318.906 403.5,317.5 Z"/></g>
<g><path style="opacity:0.333" fill="#2b2622" d="M 406.5,319.5 C 408.027,319.427 409.027,320.094 409.5,321.5C 407.973,321.573 406.973,320.906 406.5,319.5 Z"/></g>
<g><path style="opacity:0.333" fill="#2d2723" d="M 409.5,321.5 C 411.027,321.427 412.027,322.094 412.5,323.5C 410.973,323.573 409.973,322.906 409.5,321.5 Z"/></g>
<g><path style="opacity:0.333" fill="#292522" d="M 412.5,323.5 C 414.674,323.75 416.341,324.75 417.5,326.5C 415.326,326.25 413.659,325.25 412.5,323.5 Z"/></g>
<g><path style="opacity:0.333" fill="#272321" d="M 417.5,326.5 C 419.027,326.427 420.027,327.094 420.5,328.5C 418.973,328.573 417.973,327.906 417.5,326.5 Z"/></g>
<g><path style="opacity:0.333" fill="#282422" d="M 420.5,328.5 C 422.027,328.427 423.027,329.094 423.5,330.5C 421.973,330.573 420.973,329.906 420.5,328.5 Z"/></g>
<g><path style="opacity:0.333" fill="#2a2522" d="M 423.5,330.5 C 425.027,330.427 426.027,331.094 426.5,332.5C 424.973,332.573 423.973,331.906 423.5,330.5 Z"/></g>
<g><path style="opacity:0.333" fill="#2c2723" d="M 426.5,332.5 C 428.027,332.427 429.027,333.094 429.5,334.5C 427.973,334.573 426.973,333.906 426.5,332.5 Z"/></g>
<g><path style="opacity:0.339" fill="#2d2723" d="M 429.5,334.5 C 432.704,335.383 435.371,337.05 437.5,339.5C 434.296,338.617 431.629,336.95 429.5,334.5 Z"/></g>
<g><path style="opacity:0.333" fill="#332c25" d="M 252.5,335.5 C 254.072,338.215 255.072,341.215 255.5,344.5C 253.528,341.916 252.528,338.916 252.5,335.5 Z"/></g>
<g><path style="opacity:0.333" fill="#272422" d="M 437.5,339.5 C 439.027,339.427 440.027,340.094 440.5,341.5C 438.973,341.573 437.973,340.906 437.5,339.5 Z"/></g>
<g><path style="opacity:0.333" fill="#292522" d="M 440.5,341.5 C 442.027,341.427 443.027,342.094 443.5,343.5C 441.973,343.573 440.973,342.906 440.5,341.5 Z"/></g>
<g><path style="opacity:0.333" fill="#2b2622" d="M 443.5,343.5 C 445.027,343.427 446.027,344.094 446.5,345.5C 444.973,345.573 443.973,344.906 443.5,343.5 Z"/></g>
<g><path style="opacity:0.333" fill="#2d2823" d="M 446.5,345.5 C 448.027,345.427 449.027,346.094 449.5,347.5C 447.973,347.573 446.973,346.906 446.5,345.5 Z"/></g>
<g><path style="opacity:0.339" fill="#2c2723" d="M 256.5,346.5 C 259.138,349.474 261.805,352.474 264.5,355.5C 260.435,353.767 257.768,350.767 256.5,346.5 Z"/></g>
<g><path style="opacity:0.333" fill="#292522" d="M 449.5,347.5 C 451.674,347.75 453.341,348.75 454.5,350.5C 452.326,350.25 450.659,349.25 449.5,347.5 Z"/></g>
<g><path style="opacity:0.333" fill="#272321" d="M 454.5,350.5 C 456.027,350.427 457.027,351.094 457.5,352.5C 455.973,352.573 454.973,351.906 454.5,350.5 Z"/></g>
<g><path style="opacity:0.333" fill="#282422" d="M 457.5,352.5 C 459.027,352.427 460.027,353.094 460.5,354.5C 458.973,354.573 457.973,353.906 457.5,352.5 Z"/></g>
<g><path style="opacity:0.333" fill="#2a2522" d="M 460.5,354.5 C 462.027,354.427 463.027,355.094 463.5,356.5C 461.973,356.573 460.973,355.906 460.5,354.5 Z"/></g>
<g><path style="opacity:0.4" fill="#2f2924" d="M 264.5,355.5 C 266.027,355.427 267.027,356.094 267.5,357.5C 265.973,357.573 264.973,356.906 264.5,355.5 Z"/></g>
<g><path style="opacity:0.333" fill="#2c2723" d="M 463.5,356.5 C 465.027,356.427 466.027,357.094 466.5,358.5C 464.973,358.573 463.973,357.906 463.5,356.5 Z"/></g>
<g><path style="opacity:0.388" fill="#2d2823" d="M 267.5,357.5 C 269.027,357.427 270.027,358.094 270.5,359.5C 268.973,359.573 267.973,358.906 267.5,357.5 Z"/></g>
<g><path style="opacity:0.339" fill="#2d2723" d="M 466.5,358.5 C 469.704,359.383 472.371,361.05 474.5,363.5C 471.296,362.617 468.629,360.95 466.5,358.5 Z"/></g>
<g><path style="opacity:0.388" fill="#2c2723" d="M 270.5,359.5 C 272.027,359.427 273.027,360.094 273.5,361.5C 271.973,361.573 270.973,360.906 270.5,359.5 Z"/></g>
<g><path style="opacity:0.373" fill="#2b2623" d="M 273.5,361.5 C 275.027,361.427 276.027,362.094 276.5,363.5C 274.973,363.573 273.973,362.906 273.5,361.5 Z"/></g>
<g><path style="opacity:0.333" fill="#282422" d="M 474.5,363.5 C 476.027,363.427 477.027,364.094 477.5,365.5C 475.973,365.573 474.973,364.906 474.5,363.5 Z"/></g>
<g><path style="opacity:0.361" fill="#292522" d="M 276.5,363.5 C 278.027,363.427 279.027,364.094 279.5,365.5C 277.973,365.573 276.973,364.906 276.5,363.5 Z"/></g>
<g><path style="opacity:0.333" fill="#292522" d="M 477.5,365.5 C 479.027,365.427 480.027,366.094 480.5,367.5C 478.973,367.573 477.973,366.906 477.5,365.5 Z"/></g>
<g><path style="opacity:0.361" fill="#282422" d="M 279.5,365.5 C 281.027,365.427 282.027,366.094 282.5,367.5C 280.973,367.573 279.973,366.906 279.5,365.5 Z"/></g>
<g><path style="opacity:0.333" fill="#2b2622" d="M 480.5,367.5 C 482.027,367.427 483.027,368.094 483.5,369.5C 481.973,369.573 480.973,368.906 480.5,367.5 Z"/></g>
<g><path style="opacity:0.333" fill="#2e2823" d="M 483.5,369.5 C 485.027,369.427 486.027,370.094 486.5,371.5C 484.973,371.573 483.973,370.906 483.5,369.5 Z"/></g>
<g><path style="opacity:0.339" fill="#2d2823" d="M 282.5,367.5 C 286.683,369.087 290.35,371.421 293.5,374.5C 289.317,372.913 285.65,370.579 282.5,367.5 Z"/></g>
<g><path style="opacity:0.333" fill="#2a2522" d="M 486.5,371.5 C 488.674,371.75 490.341,372.75 491.5,374.5C 489.326,374.25 487.659,373.25 486.5,371.5 Z"/></g>
<g><path style="opacity:0.333" fill="#272322" d="M 491.5,374.5 C 493.027,374.427 494.027,375.094 494.5,376.5C 492.973,376.573 491.973,375.906 491.5,374.5 Z"/></g>
<g><path style="opacity:0.412" fill="#302a23" d="M 293.5,374.5 C 295.027,374.427 296.027,375.094 296.5,376.5C 294.973,376.573 293.973,375.906 293.5,374.5 Z"/></g>
<g><path style="opacity:0.333" fill="#282422" d="M 494.5,376.5 C 496.027,376.427 497.027,377.094 497.5,378.5C 495.973,378.573 494.973,377.906 494.5,376.5 Z"/></g>
<g><path style="opacity:0.388" fill="#2d2823" d="M 296.5,376.5 C 298.027,376.427 299.027,377.094 299.5,378.5C 297.973,378.573 296.973,377.906 296.5,376.5 Z"/></g>
<g><path style="opacity:0.333" fill="#2a2622" d="M 497.5,378.5 C 499.027,378.427 500.027,379.094 500.5,380.5C 498.973,380.573 497.973,379.906 497.5,378.5 Z"/></g>
<g><path style="opacity:0.373" fill="#2b2623" d="M 299.5,378.5 C 301.027,378.427 302.027,379.094 302.5,380.5C 300.973,380.573 299.973,379.906 299.5,378.5 Z"/></g>
<g><path style="opacity:0.333" fill="#2d2723" d="M 500.5,380.5 C 502.027,380.427 503.027,381.094 503.5,382.5C 501.973,382.573 500.973,381.906 500.5,380.5 Z"/></g>
<g><path style="opacity:0.361" fill="#292522" d="M 302.5,380.5 C 304.027,380.427 305.027,381.094 305.5,382.5C 303.973,382.573 302.973,381.906 302.5,380.5 Z"/></g>
<g><path style="opacity:0.345" fill="#272422" d="M 305.5,382.5 C 307.027,382.427 308.027,383.094 308.5,384.5C 306.973,384.573 305.973,383.906 305.5,382.5 Z"/></g>
<g><path style="opacity:0.333" fill="#292522" d="M 503.5,382.5 C 505.674,382.75 507.341,383.75 508.5,385.5C 506.326,385.25 504.659,384.25 503.5,382.5 Z"/></g>
<g><path style="opacity:0.333" fill="#262321" d="M 508.5,385.5 C 510.027,385.427 511.027,386.094 511.5,387.5C 509.973,387.573 508.973,386.906 508.5,385.5 Z"/></g>
<g><path style="opacity:0.339" fill="#2c2723" d="M 308.5,384.5 C 310.98,385.242 313.313,386.242 315.5,387.5C 315.833,388.167 316.167,388.833 316.5,389.5C 313.296,388.617 310.629,386.95 308.5,384.5 Z"/></g>
<g><path style="opacity:0.333" fill="#282422" d="M 511.5,387.5 C 513.027,387.427 514.027,388.094 514.5,389.5C 512.973,389.573 511.973,388.906 511.5,387.5 Z"/></g>
<g><path style="opacity:0.333" fill="#292522" d="M 514.5,389.5 C 516.027,389.427 517.027,390.094 517.5,391.5C 515.973,391.573 514.973,390.906 514.5,389.5 Z"/></g>
<g><path style="opacity:0.4" fill="#2f2a23" d="M 316.5,389.5 C 318.027,389.427 319.027,390.094 319.5,391.5C 317.973,391.573 316.973,390.906 316.5,389.5 Z"/></g>
<g><path style="opacity:0.333" fill="#2b2722" d="M 517.5,391.5 C 519.027,391.427 520.027,392.094 520.5,393.5C 518.973,393.573 517.973,392.906 517.5,391.5 Z"/></g>
<g><path style="opacity:0.388" fill="#2d2823" d="M 319.5,391.5 C 321.027,391.427 322.027,392.094 322.5,393.5C 320.973,393.573 319.973,392.906 319.5,391.5 Z"/></g>
<g><path style="opacity:0.333" fill="#2e2823" d="M 520.5,393.5 C 522.027,393.427 523.027,394.094 523.5,395.5C 521.973,395.573 520.973,394.906 520.5,393.5 Z"/></g>
<g><path style="opacity:0.373" fill="#2a2622" d="M 322.5,393.5 C 324.027,393.427 325.027,394.094 325.5,395.5C 323.973,395.573 322.973,394.906 322.5,393.5 Z"/></g>
<g><path style="opacity:0.361" fill="#282421" d="M 325.5,395.5 C 327.027,395.427 328.027,396.094 328.5,397.5C 326.973,397.573 325.973,396.906 325.5,395.5 Z"/></g>
<g><path style="opacity:0.333" fill="#2a2522" d="M 523.5,395.5 C 525.674,395.75 527.341,396.75 528.5,398.5C 526.326,398.25 524.659,397.25 523.5,395.5 Z"/></g>
<g><path style="opacity:0.345" fill="#272321" d="M 328.5,397.5 C 330.027,397.427 331.027,398.094 331.5,399.5C 329.973,399.573 328.973,398.906 328.5,397.5 Z"/></g>
<g><path style="opacity:0.333" fill="#272322" d="M 528.5,398.5 C 530.027,398.427 531.027,399.094 531.5,400.5C 529.973,400.573 528.973,399.906 528.5,398.5 Z"/></g>
<g><path style="opacity:0.339" fill="#2d2723" d="M 331.5,399.5 C 333.674,399.75 335.341,400.75 336.5,402.5C 334.326,402.25 332.659,401.25 331.5,399.5 Z"/></g>
<g><path style="opacity:0.333" fill="#292422" d="M 531.5,400.5 C 533.027,400.427 534.027,401.094 534.5,402.5C 532.973,402.573 531.973,401.906 531.5,400.5 Z"/></g>
<g><path style="opacity:0.333" fill="#2a2622" d="M 534.5,402.5 C 536.027,402.427 537.027,403.094 537.5,404.5C 535.973,404.573 534.973,403.906 534.5,402.5 Z"/></g>
<g><path style="opacity:0.412" fill="#302a23" d="M 336.5,402.5 C 338.027,402.427 339.027,403.094 339.5,404.5C 337.973,404.573 336.973,403.906 336.5,402.5 Z"/></g>
<g><path style="opacity:0.333" fill="#2d2723" d="M 537.5,404.5 C 539.027,404.427 540.027,405.094 540.5,406.5C 538.973,406.573 537.973,405.906 537.5,404.5 Z"/></g>
<g><path style="opacity:0.388" fill="#2d2823" d="M 339.5,404.5 C 341.027,404.427 342.027,405.094 342.5,406.5C 340.973,406.573 339.973,405.906 339.5,404.5 Z"/></g>
<g><path style="opacity:0.373" fill="#2b2722" d="M 342.5,406.5 C 344.027,406.427 345.027,407.094 345.5,408.5C 343.973,408.573 342.973,407.906 342.5,406.5 Z"/></g>
<g><path style="opacity:0.333" fill="#292522" d="M 540.5,406.5 C 542.674,406.75 544.341,407.75 545.5,409.5C 543.326,409.25 541.659,408.25 540.5,406.5 Z"/></g>
<g><path style="opacity:0.361" fill="#292522" d="M 345.5,408.5 C 346.167,408.5 346.833,408.5 347.5,408.5C 347.833,409.167 348.167,409.833 348.5,410.5C 346.973,410.573 345.973,409.906 345.5,408.5 Z"/></g>
<g><path style="opacity:0.333" fill="#272321" d="M 545.5,409.5 C 547.027,409.427 548.027,410.094 548.5,411.5C 546.973,411.573 545.973,410.906 545.5,409.5 Z"/></g>
<g><path style="opacity:0.345" fill="#272321" d="M 348.5,410.5 C 350.027,410.427 351.027,411.094 351.5,412.5C 349.973,412.573 348.973,411.906 348.5,410.5 Z"/></g>
<g><path style="opacity:0.333" fill="#282422" d="M 548.5,411.5 C 550.027,411.427 551.027,412.094 551.5,413.5C 549.973,413.573 548.973,412.906 548.5,411.5 Z"/></g>
<g><path style="opacity:0.345" fill="#2e2823" d="M 351.5,412.5 C 353.674,412.75 355.341,413.75 356.5,415.5C 354.326,415.25 352.659,414.25 351.5,412.5 Z"/></g>
<g><path style="opacity:0.333" fill="#2a2522" d="M 551.5,413.5 C 553.027,413.427 554.027,414.094 554.5,415.5C 552.973,415.573 551.973,414.906 551.5,413.5 Z"/></g>
<g><path style="opacity:0.333" fill="#2c2723" d="M 554.5,415.5 C 556.027,415.427 557.027,416.094 557.5,417.5C 555.973,417.573 554.973,416.906 554.5,415.5 Z"/></g>
<g><path style="opacity:0.427" fill="#322b23" d="M 356.5,415.5 C 358.027,415.427 359.027,416.094 359.5,417.5C 357.973,417.573 356.973,416.906 356.5,415.5 Z"/></g>
<g><path style="opacity:0.4" fill="#2f2923" d="M 359.5,417.5 C 361.027,417.427 362.027,418.094 362.5,419.5C 360.973,419.573 359.973,418.906 359.5,417.5 Z"/></g>
<g><path style="opacity:0.339" fill="#2d2723" d="M 557.5,417.5 C 560.704,418.383 563.371,420.05 565.5,422.5C 562.296,421.617 559.629,419.95 557.5,417.5 Z"/></g>
<g><path style="opacity:0.388" fill="#2c2722" d="M 362.5,419.5 C 364.027,419.427 365.027,420.094 365.5,421.5C 363.973,421.573 362.973,420.906 362.5,419.5 Z"/></g>
<g><path style="opacity:0.373" fill="#2a2622" d="M 365.5,421.5 C 367.027,421.427 368.027,422.094 368.5,423.5C 366.973,423.573 365.973,422.906 365.5,421.5 Z"/></g>
<g><path style="opacity:0.333" fill="#272322" d="M 565.5,422.5 C 567.027,422.427 568.027,423.094 568.5,424.5C 566.973,424.573 565.973,423.906 565.5,422.5 Z"/></g>
<g><path style="opacity:0.361" fill="#292422" d="M 368.5,423.5 C 370.027,423.427 371.027,424.094 371.5,425.5C 369.973,425.573 368.973,424.906 368.5,423.5 Z"/></g>
<g><path style="opacity:0.333" fill="#292522" d="M 568.5,424.5 C 570.027,424.427 571.027,425.094 571.5,426.5C 569.973,426.573 568.973,425.906 568.5,424.5 Z"/></g>
<g><path style="opacity:0.345" fill="#272321" d="M 371.5,425.5 C 373.027,425.427 374.027,426.094 374.5,427.5C 372.973,427.573 371.973,426.906 371.5,425.5 Z"/></g>
<g><path style="opacity:0.333" fill="#2b2622" d="M 571.5,426.5 C 573.027,426.427 574.027,427.094 574.5,428.5C 572.973,428.573 571.973,427.906 571.5,426.5 Z"/></g>
<g><path style="opacity:0.339" fill="#2c2722" d="M 374.5,427.5 C 376.674,427.75 378.341,428.75 379.5,430.5C 377.326,430.25 375.659,429.25 374.5,427.5 Z"/></g>
<g><path style="opacity:0.333" fill="#2d2723" d="M 574.5,428.5 C 576.027,428.427 577.027,429.094 577.5,430.5C 575.973,430.573 574.973,429.906 574.5,428.5 Z"/></g>
<g><path style="opacity:0.412" fill="#302a23" d="M 379.5,430.5 C 381.027,430.427 382.027,431.094 382.5,432.5C 380.973,432.573 379.973,431.906 379.5,430.5 Z"/></g>
<g><path style="opacity:0.333" fill="#292522" d="M 577.5,430.5 C 579.674,430.75 581.341,431.75 582.5,433.5C 580.326,433.25 578.659,432.25 577.5,430.5 Z"/></g>
<g><path style="opacity:0.4" fill="#2e2822" d="M 382.5,432.5 C 384.027,432.427 385.027,433.094 385.5,434.5C 383.973,434.573 382.973,433.906 382.5,432.5 Z"/></g>
<g><path style="opacity:0.333" fill="#272321" d="M 582.5,433.5 C 584.027,433.427 585.027,434.094 585.5,435.5C 583.973,435.573 582.973,434.906 582.5,433.5 Z"/></g>
<g><path style="opacity:0.373" fill="#2b2722" d="M 385.5,434.5 C 387.027,434.427 388.027,435.094 388.5,436.5C 386.973,436.573 385.973,435.906 385.5,434.5 Z"/></g>
<g><path style="opacity:0.333" fill="#282422" d="M 585.5,435.5 C 587.027,435.427 588.027,436.094 588.5,437.5C 586.973,437.573 585.973,436.906 585.5,435.5 Z"/></g>
<g><path style="opacity:0.361" fill="#292522" d="M 388.5,436.5 C 390.027,436.427 391.027,437.094 391.5,438.5C 389.973,438.573 388.973,437.906 388.5,436.5 Z"/></g>
<g><path style="opacity:0.333" fill="#2a2522" d="M 588.5,437.5 C 590.027,437.427 591.027,438.094 591.5,439.5C 589.973,439.573 588.973,438.906 588.5,437.5 Z"/></g>
<g><path style="opacity:0.361" fill="#282421" d="M 391.5,438.5 C 393.027,438.427 394.027,439.094 394.5,440.5C 392.973,440.573 391.973,439.906 391.5,438.5 Z"/></g>
<g><path style="opacity:0.333" fill="#2c2723" d="M 591.5,439.5 C 593.027,439.427 594.027,440.094 594.5,441.5C 592.973,441.573 591.973,440.906 591.5,439.5 Z"/></g>
<g><path style="opacity:0.345" fill="#2e2822" d="M 394.5,440.5 C 396.674,440.75 398.341,441.75 399.5,443.5C 397.326,443.25 395.659,442.25 394.5,440.5 Z"/></g>
<g><path style="opacity:0.339" fill="#2d2723" d="M 594.5,441.5 C 597.704,442.383 600.371,444.05 602.5,446.5C 599.296,445.617 596.629,443.95 594.5,441.5 Z"/></g>
<g><path style="opacity:0.427" fill="#322b23" d="M 399.5,443.5 C 401.027,443.427 402.027,444.094 402.5,445.5C 400.973,445.573 399.973,444.906 399.5,443.5 Z"/></g>
<g><path style="opacity:0.412" fill="#302923" d="M 402.5,445.5 C 404.027,445.427 405.027,446.094 405.5,447.5C 403.973,447.573 402.973,446.906 402.5,445.5 Z"/></g>
<g><path style="opacity:0.333" fill="#282422" d="M 602.5,446.5 C 604.027,446.427 605.027,447.094 605.5,448.5C 603.973,448.573 602.973,447.906 602.5,446.5 Z"/></g>
<g><path style="opacity:0.388" fill="#2c2722" d="M 405.5,447.5 C 407.027,447.427 408.027,448.094 408.5,449.5C 406.973,449.573 405.973,448.906 405.5,447.5 Z"/></g>
<g><path style="opacity:0.333" fill="#292522" d="M 605.5,448.5 C 607.027,448.427 608.027,449.094 608.5,450.5C 606.973,450.573 605.973,449.906 605.5,448.5 Z"/></g>
<g><path style="opacity:0.373" fill="#2a2622" d="M 408.5,449.5 C 410.027,449.427 411.027,450.094 411.5,451.5C 409.973,451.573 408.973,450.906 408.5,449.5 Z"/></g>
<g><path style="opacity:0.333" fill="#2b2622" d="M 608.5,450.5 C 610.027,450.427 611.027,451.094 611.5,452.5C 609.973,452.573 608.973,451.906 608.5,450.5 Z"/></g>
<g><path style="opacity:0.361" fill="#292522" d="M 411.5,451.5 C 413.027,451.427 414.027,452.094 414.5,453.5C 412.973,453.573 411.973,452.906 411.5,451.5 Z"/></g>
<g><path style="opacity:0.333" fill="#2d2823" d="M 611.5,452.5 C 613.027,452.427 614.027,453.094 614.5,454.5C 612.973,454.573 611.973,453.906 611.5,452.5 Z"/></g>
<g><path style="opacity:0.345" fill="#272321" d="M 414.5,453.5 C 416.027,453.427 417.027,454.094 417.5,455.5C 415.973,455.573 414.973,454.906 414.5,453.5 Z"/></g>
<g><path style="opacity:0.333" fill="#2a2522" d="M 614.5,454.5 C 616.674,454.75 618.341,455.75 619.5,457.5C 617.326,457.25 615.659,456.25 614.5,454.5 Z"/></g>
<g><path style="opacity:0.339" fill="#2d2722" d="M 417.5,455.5 C 419.674,455.75 421.341,456.75 422.5,458.5C 420.326,458.25 418.659,457.25 417.5,455.5 Z"/></g>
<g><path style="opacity:0.333" fill="#272321" d="M 619.5,457.5 C 621.027,457.427 622.027,458.094 622.5,459.5C 620.973,459.573 619.973,458.906 619.5,457.5 Z"/></g>
<g><path style="opacity:0.412" fill="#312a23" d="M 422.5,458.5 C 424.027,458.427 425.027,459.094 425.5,460.5C 423.973,460.573 422.973,459.906 422.5,458.5 Z"/></g>
<g><path style="opacity:0.333" fill="#282422" d="M 622.5,459.5 C 624.027,459.427 625.027,460.094 625.5,461.5C 623.973,461.573 622.973,460.906 622.5,459.5 Z"/></g>
<g><path style="opacity:0.4" fill="#2e2822" d="M 425.5,460.5 C 427.027,460.427 428.027,461.094 428.5,462.5C 426.973,462.573 425.973,461.906 425.5,460.5 Z"/></g>
<g><path style="opacity:0.333" fill="#2a2622" d="M 625.5,461.5 C 627.027,461.427 628.027,462.094 628.5,463.5C 626.973,463.573 625.973,462.906 625.5,461.5 Z"/></g>
<g><path style="opacity:0.373" fill="#2b2722" d="M 428.5,462.5 C 430.027,462.427 431.027,463.094 431.5,464.5C 429.973,464.573 428.973,463.906 428.5,462.5 Z"/></g>
<g><path style="opacity:0.333" fill="#2c2723" d="M 628.5,463.5 C 630.027,463.427 631.027,464.094 631.5,465.5C 629.973,465.573 628.973,464.906 628.5,463.5 Z"/></g>
<g><path style="opacity:0.361" fill="#292522" d="M 431.5,464.5 C 433.027,464.427 434.027,465.094 434.5,466.5C 432.973,466.573 431.973,465.906 431.5,464.5 Z"/></g>
<g><path style="opacity:0.333" fill="#292522" d="M 631.5,465.5 C 633.674,465.75 635.341,466.75 636.5,468.5C 634.326,468.25 632.659,467.25 631.5,465.5 Z"/></g>
<g><path style="opacity:0.361" fill="#282421" d="M 434.5,466.5 C 436.027,466.427 437.027,467.094 437.5,468.5C 435.973,468.573 434.973,467.906 434.5,466.5 Z"/></g>
<g><path style="opacity:0.333" fill="#262321" d="M 636.5,468.5 C 638.027,468.427 639.027,469.094 639.5,470.5C 637.973,470.573 636.973,469.906 636.5,468.5 Z"/></g>
<g><path style="opacity:0.345" fill="#2e2822" d="M 437.5,468.5 C 439.674,468.75 441.341,469.75 442.5,471.5C 440.326,471.25 438.659,470.25 437.5,468.5 Z"/></g>
<g><path style="opacity:0.333" fill="#282422" d="M 639.5,470.5 C 641.027,470.427 642.027,471.094 642.5,472.5C 640.973,472.573 639.973,471.906 639.5,470.5 Z"/></g>
<g><path style="opacity:0.427" fill="#322b23" d="M 442.5,471.5 C 444.027,471.427 445.027,472.094 445.5,473.5C 443.973,473.573 442.973,472.906 442.5,471.5 Z"/></g>
<g><path style="opacity:0.333" fill="#292522" d="M 642.5,472.5 C 644.027,472.427 645.027,473.094 645.5,474.5C 643.973,474.573 642.973,473.906 642.5,472.5 Z"/></g>
<g><path style="opacity:0.4" fill="#2f2923" d="M 445.5,473.5 C 447.027,473.427 448.027,474.094 448.5,475.5C 446.973,475.573 445.973,474.906 445.5,473.5 Z"/></g>
<g><path style="opacity:0.333" fill="#282422" d="M 645.5,474.5 C 647.674,474.75 649.341,475.75 650.5,477.5C 648.326,477.25 646.659,476.25 645.5,474.5 Z"/></g>
<g><path style="opacity:0.388" fill="#2c2722" d="M 448.5,475.5 C 450.027,475.427 451.027,476.094 451.5,477.5C 449.973,477.573 448.973,476.906 448.5,475.5 Z"/></g>
<g><path style="opacity:0.333" fill="#2d2722" d="M 650.5,477.5 C 654.167,479.167 656.833,481.833 658.5,485.5C 655.5,483.167 652.833,480.5 650.5,477.5 Z"/></g>
<g><path style="opacity:0.373" fill="#2a2622" d="M 451.5,477.5 C 453.027,477.427 454.027,478.094 454.5,479.5C 452.973,479.573 451.973,478.906 451.5,477.5 Z"/></g>
<g><path style="opacity:0.361" fill="#292422" d="M 454.5,479.5 C 456.027,479.427 457.027,480.094 457.5,481.5C 455.973,481.573 454.973,480.906 454.5,479.5 Z"/></g>
<g><path style="opacity:0.345" fill="#272321" d="M 457.5,481.5 C 459.027,481.427 460.027,482.094 460.5,483.5C 458.973,483.573 457.973,482.906 457.5,481.5 Z"/></g>
<g><path style="opacity:0.339" fill="#2c2722" d="M 460.5,483.5 C 462.674,483.75 464.341,484.75 465.5,486.5C 463.326,486.25 461.659,485.25 460.5,483.5 Z"/></g>
<g><path style="opacity:0.412" fill="#302a23" d="M 465.5,486.5 C 467.027,486.427 468.027,487.094 468.5,488.5C 466.973,488.573 465.973,487.906 465.5,486.5 Z"/></g>
<g><path style="opacity:0.388" fill="#2e2822" d="M 658.5,485.5 C 659.906,485.973 660.573,486.973 660.5,488.5C 659.094,488.027 658.427,487.027 658.5,485.5 Z"/></g>
<g><path style="opacity:0.388" fill="#2d2822" d="M 468.5,488.5 C 470.027,488.427 471.027,489.094 471.5,490.5C 469.973,490.573 468.973,489.906 468.5,488.5 Z"/></g>
<g><path style="opacity:0.373" fill="#2b2722" d="M 471.5,490.5 C 473.027,490.427 474.027,491.094 474.5,492.5C 472.973,492.573 471.973,491.906 471.5,490.5 Z"/></g>
<g><path style="opacity:0.361" fill="#292522" d="M 474.5,492.5 C 476.027,492.427 477.027,493.094 477.5,494.5C 475.973,494.573 474.973,493.906 474.5,492.5 Z"/></g>
<g><path style="opacity:0.345" fill="#272321" d="M 477.5,494.5 C 479.027,494.427 480.027,495.094 480.5,496.5C 478.973,496.573 477.973,495.906 477.5,494.5 Z"/></g>
<g><path style="opacity:0.345" fill="#2e2822" d="M 480.5,496.5 C 482.674,496.75 484.341,497.75 485.5,499.5C 483.326,499.25 481.659,498.25 480.5,496.5 Z"/></g>
<g><path style="opacity:0.427" fill="#322b23" d="M 485.5,499.5 C 487.027,499.427 488.027,500.094 488.5,501.5C 486.973,501.573 485.973,500.906 485.5,499.5 Z"/></g>
<g><path style="opacity:0.4" fill="#2f2922" d="M 488.5,501.5 C 490.027,501.427 491.027,502.094 491.5,503.5C 489.973,503.573 488.973,502.906 488.5,501.5 Z"/></g>
<g><path style="opacity:1" fill="#4e412b" d="M 250.5,500.5 C 249.22,501.931 247.553,502.598 245.5,502.5C 245.5,507.833 245.5,513.167 245.5,518.5C 244.635,512.996 243.968,507.329 243.5,501.5C 245.806,501.007 248.139,500.674 250.5,500.5 Z"/></g>
<g><path style="opacity:0.388" fill="#2c2722" d="M 491.5,503.5 C 493.027,503.427 494.027,504.094 494.5,505.5C 492.973,505.573 491.973,504.906 491.5,503.5 Z"/></g>
<g><path style="opacity:0.6" fill="#3d3425" d="M 661.5,490.5 C 662.927,492.148 663.76,494.148 664,496.5C 664.819,502.681 664.653,508.681 663.5,514.5C 663.886,506.381 663.219,498.381 661.5,490.5 Z"/></g>
<g><path style="opacity:0.373" fill="#2a2622" d="M 494.5,505.5 C 496.027,505.427 497.027,506.094 497.5,507.5C 495.973,507.573 494.973,506.906 494.5,505.5 Z"/></g>
<g><path style="opacity:0.361" fill="#292422" d="M 497.5,507.5 C 499.027,507.427 500.027,508.094 500.5,509.5C 498.973,509.573 497.973,508.906 497.5,507.5 Z"/></g>
<g><path style="opacity:0.345" fill="#272321" d="M 500.5,509.5 C 502.027,509.427 503.027,510.094 503.5,511.5C 501.973,511.573 500.973,510.906 500.5,509.5 Z"/></g>
<g><path style="opacity:0.333" fill="#272321" d="M 643.5,515.5 C 643.768,513.901 643.434,512.568 642.5,511.5C 642.783,510.711 643.283,510.044 644,509.5C 644.789,511.712 644.622,513.712 643.5,515.5 Z"/></g>
<g><path style="opacity:0.339" fill="#2c2722" d="M 503.5,511.5 C 505.674,511.75 507.341,512.75 508.5,514.5C 506.326,514.25 504.659,513.25 503.5,511.5 Z"/></g>
<g><path style="opacity:0.412" fill="#302a23" d="M 508.5,514.5 C 510.027,514.427 511.027,515.094 511.5,516.5C 509.973,516.573 508.973,515.906 508.5,514.5 Z"/></g>
<g><path style="opacity:0.333" fill="#282422" d="M 641.5,512.5 C 640.415,514.587 638.749,515.92 636.5,516.5C 637.585,514.413 639.251,513.08 641.5,512.5 Z"/></g>
<g><path style="opacity:0.388" fill="#2d2822" d="M 511.5,516.5 C 513.027,516.427 514.027,517.094 514.5,518.5C 512.973,518.573 511.973,517.906 511.5,516.5 Z"/></g>
<g><path style="opacity:0.373" fill="#2b2722" d="M 514.5,518.5 C 516.027,518.427 517.027,519.094 517.5,520.5C 515.973,520.573 514.973,519.906 514.5,518.5 Z"/></g>
<g><path style="opacity:0.333" fill="#282422" d="M 635.5,517.5 C 634.415,519.587 632.749,520.92 630.5,521.5C 631.585,519.413 633.251,518.08 635.5,517.5 Z"/></g>
<g><path style="opacity:0.361" fill="#292522" d="M 517.5,520.5 C 519.027,520.427 520.027,521.094 520.5,522.5C 518.973,522.573 517.973,521.906 517.5,520.5 Z"/></g>
<g><path style="opacity:0.345" fill="#272321" d="M 520.5,522.5 C 522.027,522.427 523.027,523.094 523.5,524.5C 521.973,524.573 520.973,523.906 520.5,522.5 Z"/></g>
<g><path style="opacity:0.345" fill="#2d2822" d="M 523.5,524.5 C 525.674,524.75 527.341,525.75 528.5,527.5C 526.326,527.25 524.659,526.25 523.5,524.5 Z"/></g>
<g><path style="opacity:0.333" fill="#272321" d="M 629.5,522.5 C 628.089,524.914 626.089,526.581 623.5,527.5C 624.911,525.086 626.911,523.419 629.5,522.5 Z"/></g>
<g><path style="opacity:0.467" fill="#302a23" d="M 528.5,527.5 C 530.404,527.738 531.738,528.738 532.5,530.5C 530.596,530.262 529.262,529.262 528.5,527.5 Z"/></g>
<g><path style="opacity:0.333" fill="#272422" d="M 623.5,527.5 C 622.089,529.914 620.089,531.581 617.5,532.5C 618.911,530.086 620.911,528.419 623.5,527.5 Z"/></g>
<g><path style="opacity:0.412" fill="#2d2723" d="M 532.5,530.5 C 534.027,530.427 535.027,531.094 535.5,532.5C 533.973,532.573 532.973,531.906 532.5,530.5 Z"/></g>
<g><path style="opacity:0.427" fill="#312a23" d="M 535.5,532.5 C 538.089,533.419 540.089,535.086 541.5,537.5C 538.911,536.581 536.911,534.914 535.5,532.5 Z"/></g>
<g><path style="opacity:0.333" fill="#282422" d="M 617.5,532.5 C 616.089,534.914 614.089,536.581 611.5,537.5C 612.911,535.086 614.911,533.419 617.5,532.5 Z"/></g>
<g><path style="opacity:0.855" fill="#403627" d="M 267.5,532.5 C 269.278,537.272 270.611,542.272 271.5,547.5C 269.098,542.899 267.765,537.899 267.5,532.5 Z"/></g>
<g><path style="opacity:0.345" fill="#352d24" d="M 661.5,530.5 C 660.907,537.867 659.24,544.867 656.5,551.5C 657.723,544.28 659.39,537.28 661.5,530.5 Z"/></g>
<g><path style="opacity:0.855" fill="#423726" d="M 641.5,529.5 C 641.394,535.256 640.061,540.589 637.5,545.5C 638.547,539.98 639.88,534.646 641.5,529.5 Z"/></g>
<g><path style="opacity:0.333" fill="#372f26" d="M 246.5,525.5 C 249.516,539.56 253.183,553.56 257.5,567.5C 251.668,554.178 248.002,540.178 246.5,525.5 Z"/></g>
<g><path style="opacity:0.333" fill="#252221" d="M 610.5,538.5 C 609.415,540.587 607.749,541.92 605.5,542.5C 606.585,540.413 608.251,539.08 610.5,538.5 Z"/></g>
<g><path style="opacity:0.333" fill="#2a2522" d="M 545.5,541.5 C 547.587,542.585 548.92,544.251 549.5,546.5C 547.413,545.415 546.08,543.749 545.5,541.5 Z"/></g>
<g><path style="opacity:1" fill="#ae8a3c" d="M 267.5,532.5 C 267.765,537.899 269.098,542.899 271.5,547.5C 271.47,552.079 272.804,556.079 275.5,559.5C 275.402,561.553 276.069,563.22 277.5,564.5C 277.402,566.553 278.069,568.22 279.5,569.5C 280.674,570.514 281.34,571.847 281.5,573.5C 281.229,575.38 281.896,576.713 283.5,577.5C 285.341,579.849 286.674,582.515 287.5,585.5C 287.75,587.674 288.75,589.341 290.5,590.5C 291.383,593.704 293.05,596.371 295.5,598.5C 296.433,601.37 298.1,603.704 300.5,605.5C 300.738,607.404 301.738,608.738 303.5,609.5C 303.557,610.609 303.89,611.609 304.5,612.5C 304.826,621.349 304.493,630.016 303.5,638.5C 301.456,636.781 299.456,635.114 297.5,633.5C 296.243,630.573 294.243,628.239 291.5,626.5C 290.92,624.251 289.587,622.585 287.5,621.5C 287.262,619.596 286.262,618.262 284.5,617.5C 284.573,615.973 283.906,614.973 282.5,614.5C 280.327,610.148 277.66,606.148 274.5,602.5C 274.25,600.326 273.25,598.659 271.5,597.5C 270.662,597.158 270.328,596.492 270.5,595.5C 268.008,589.182 265.008,583.182 261.5,577.5C 260.737,573.863 259.403,570.53 257.5,567.5C 253.183,553.56 249.516,539.56 246.5,525.5C 245.532,523.393 245.198,521.059 245.5,518.5C 245.5,513.167 245.5,507.833 245.5,502.5C 247.553,502.598 249.22,501.931 250.5,500.5C 254.743,499.319 259.076,498.652 263.5,498.5C 264.365,509.887 265.698,521.221 267.5,532.5 Z"/></g>
<g><path style="opacity:0.333" fill="#252221" d="M 604.5,543.5 C 603.415,545.587 601.749,546.92 599.5,547.5C 600.585,545.413 602.251,544.08 604.5,543.5 Z"/></g>
<g><path style="opacity:0.333" fill="#272422" d="M 549.5,546.5 C 550.906,546.973 551.573,547.973 551.5,549.5C 550.094,549.027 549.427,548.027 549.5,546.5 Z"/></g>
<g><path style="opacity:0.933" fill="#4d3f28" d="M 637.5,545.5 C 636.863,552.077 634.863,558.077 631.5,563.5C 633.327,557.353 635.327,551.353 637.5,545.5 Z"/></g>
<g><path style="opacity:0.361" fill="#312a23" d="M 551.5,549.5 C 553.539,550.911 554.539,552.911 554.5,555.5C 552.992,553.819 551.992,551.819 551.5,549.5 Z"/></g>
<g><path style="opacity:0.333" fill="#262221" d="M 598.5,548.5 C 597.415,550.587 595.749,551.92 593.5,552.5C 594.585,550.413 596.251,549.08 598.5,548.5 Z"/></g>
<g><path style="opacity:0.333" fill="#322b23" d="M 656.5,551.5 C 655.473,557.915 653.473,563.915 650.5,569.5C 651.928,563.216 653.928,557.216 656.5,551.5 Z"/></g>
<g><path style="opacity:0.333" fill="#262221" d="M 592.5,553.5 C 591.415,555.587 589.749,556.92 587.5,557.5C 588.585,555.413 590.251,554.08 592.5,553.5 Z"/></g>
<g><path style="opacity:1" fill="#5a4a2d" d="M 271.5,547.5 C 273.405,551.216 274.739,555.216 275.5,559.5C 272.804,556.079 271.47,552.079 271.5,547.5 Z"/></g>
<g><path style="opacity:0.333" fill="#282422" d="M 275.5,559.5 C 276.931,560.78 277.598,562.447 277.5,564.5C 276.069,563.22 275.402,561.553 275.5,559.5 Z"/></g>
<g><path style="opacity:0.333" fill="#2b2622" d="M 586.5,558.5 C 583.391,561.729 581.058,565.395 579.5,569.5C 579.603,564.27 581.936,560.604 586.5,558.5 Z"/></g>
<g><path style="opacity:0.333" fill="#2b2623" d="M 277.5,564.5 C 278.931,565.78 279.598,567.447 279.5,569.5C 278.069,568.22 277.402,566.553 277.5,564.5 Z"/></g>
<g><path style="opacity:0.333" fill="#362e24" d="M 554.5,555.5 C 555.927,557.148 556.76,559.148 557,561.5C 557.817,567.016 557.651,572.35 556.5,577.5C 556.848,570.052 556.182,562.719 554.5,555.5 Z"/></g>
<g><path style="opacity:0.333" fill="#2a2522" d="M 630.5,565.5 C 630.598,567.553 629.931,569.22 628.5,570.5C 628.402,568.447 629.069,566.78 630.5,565.5 Z"/></g>
<g><path style="opacity:0.4" fill="#302a23" d="M 650.5,569.5 C 650.598,571.553 649.931,573.22 648.5,574.5C 648.402,572.447 649.069,570.78 650.5,569.5 Z"/></g>
<g><path style="opacity:0.339" fill="#312a24" d="M 257.5,567.5 C 259.403,570.53 260.737,573.863 261.5,577.5C 259.206,574.63 257.872,571.297 257.5,567.5 Z"/></g>
<g><path style="opacity:0.333" fill="#2d2722" d="M 648.5,574.5 C 648.293,577.241 647.293,579.574 645.5,581.5C 645.707,578.759 646.707,576.426 648.5,574.5 Z"/></g>
<g><path style="opacity:0.373" fill="#2a2522" d="M 281.5,573.5 C 282.674,574.514 283.34,575.847 283.5,577.5C 281.896,576.713 281.229,575.38 281.5,573.5 Z"/></g>
<g><path style="opacity:0.388" fill="#302a23" d="M 578.5,572.5 C 578.267,575.542 577.267,578.208 575.5,580.5C 575.733,577.458 576.733,574.792 578.5,572.5 Z"/></g>
<g><path style="opacity:0.439" fill="#342d24" d="M 575.5,580.5 C 575.598,582.553 574.931,584.22 573.5,585.5C 573.402,583.447 574.069,581.78 575.5,580.5 Z"/></g>
<g><path style="opacity:0.761" fill="#423726" d="M 556.5,577.5 C 556.235,582.899 554.902,587.899 552.5,592.5C 553.389,587.272 554.722,582.272 556.5,577.5 Z"/></g>
<g><path style="opacity:0.345" fill="#2b2622" d="M 621.5,584.5 C 621.25,586.674 620.25,588.341 618.5,589.5C 618.75,587.326 619.75,585.659 621.5,584.5 Z"/></g>
<g><path style="opacity:0.345" fill="#2f2924" d="M 287.5,585.5 C 289.25,586.659 290.25,588.326 290.5,590.5C 288.75,589.341 287.75,587.674 287.5,585.5 Z"/></g>
<g><path style="opacity:0.333" fill="#2b2622" d="M 572.5,588.5 C 572.598,590.553 571.931,592.22 570.5,593.5C 570.402,591.447 571.069,589.78 572.5,588.5 Z"/></g>
<g><path style="opacity:0.345" fill="#2e2923" d="M 261.5,577.5 C 265.008,583.182 268.008,589.182 270.5,595.5C 266.46,590.086 263.46,584.086 261.5,577.5 Z"/></g>
<g><path style="opacity:0.478" fill="#2d2722" d="M 618.5,589.5 C 618.25,591.674 617.25,593.341 615.5,594.5C 615.75,592.326 616.75,590.659 618.5,589.5 Z"/></g>
<g><path style="opacity:0.345" fill="#2e2823" d="M 290.5,590.5 C 292.95,592.629 294.617,595.296 295.5,598.5C 293.05,596.371 291.383,593.704 290.5,590.5 Z"/></g>
<g><path style="opacity:0.333" fill="#2e2823" d="M 570.5,593.5 C 570.293,596.241 569.293,598.574 567.5,600.5C 567.707,597.759 568.707,595.426 570.5,593.5 Z"/></g>
<g><path style="opacity:0.345" fill="#2c2722" d="M 639.5,593.5 C 639.25,595.674 638.25,597.341 636.5,598.5C 636.75,596.326 637.75,594.659 639.5,593.5 Z"/></g>
<g><path style="opacity:0.373" fill="#2b2722" d="M 615.5,594.5 C 615.573,596.027 614.906,597.027 613.5,597.5C 613.427,595.973 614.094,594.973 615.5,594.5 Z"/></g>
<g><path style="opacity:1" fill="#57472a" d="M 552.5,592.5 C 552.655,595.716 551.655,598.383 549.5,600.5C 549.98,597.557 550.98,594.89 552.5,592.5 Z"/></g>
<g><path style="opacity:0.339" fill="#292422" d="M 271.5,597.5 C 273.25,598.659 274.25,600.326 274.5,602.5C 272.75,601.341 271.75,599.674 271.5,597.5 Z"/></g>
<g><path style="opacity:0.373" fill="#2a2622" d="M 613.5,597.5 C 613.573,599.027 612.906,600.027 611.5,600.5C 611.427,598.973 612.094,597.973 613.5,597.5 Z"/></g>
<g><path style="opacity:0.339" fill="#2e2823" d="M 295.5,598.5 C 297.9,600.296 299.567,602.63 300.5,605.5C 298.1,603.704 296.433,601.37 295.5,598.5 Z"/></g>
<g><path style="opacity:0.339" fill="#2f2923" d="M 567.5,600.5 C 567.598,602.553 566.931,604.22 565.5,605.5C 565.402,603.447 566.069,601.78 567.5,600.5 Z"/></g>
<g><path style="opacity:0.333" fill="#2a2522" d="M 635.5,600.5 C 635.573,602.027 634.906,603.027 633.5,603.5C 633.427,601.973 634.094,600.973 635.5,600.5 Z"/></g>
<g><path style="opacity:0.412" fill="#2e2823" d="M 611.5,600.5 C 611.573,602.027 610.906,603.027 609.5,603.5C 609.427,601.973 610.094,600.973 611.5,600.5 Z"/></g>
<g><path style="opacity:1" fill="#4d3f28" d="M 549.5,600.5 C 549.88,602.698 549.213,604.365 547.5,605.5C 547.402,603.447 548.069,601.78 549.5,600.5 Z"/></g>
<g><path style="opacity:0.333" fill="#2d2823" d="M 274.5,602.5 C 277.66,606.148 280.327,610.148 282.5,614.5C 278.844,611.197 276.178,607.197 274.5,602.5 Z"/></g>
<g><path style="opacity:0.506" fill="#342d24" d="M 609.5,603.5 C 609.262,605.404 608.262,606.738 606.5,607.5C 606.738,605.596 607.738,604.262 609.5,603.5 Z"/></g>
<g><path style="opacity:0.333" fill="#2a2522" d="M 633.5,603.5 C 633.25,605.674 632.25,607.341 630.5,608.5C 630.75,606.326 631.75,604.659 633.5,603.5 Z"/></g>
<g><path style="opacity:0.478" fill="#302a24" d="M 300.5,605.5 C 302.262,606.262 303.262,607.596 303.5,609.5C 301.738,608.738 300.738,607.404 300.5,605.5 Z"/></g>
<g><path style="opacity:0.333" fill="#2a2522" d="M 546.5,607.5 C 546.598,609.553 545.931,611.22 544.5,612.5C 544.402,610.447 545.069,608.78 546.5,607.5 Z"/></g>
<g><path style="opacity:0.333" fill="#272322" d="M 630.5,608.5 C 630.573,610.027 629.906,611.027 628.5,611.5C 628.427,609.973 629.094,608.973 630.5,608.5 Z"/></g>
<g><path style="opacity:0.373" fill="#2f2923" d="M 564.5,607.5 C 564.598,609.553 563.931,611.22 562.5,612.5C 562.402,610.447 563.069,608.78 564.5,607.5 Z"/></g>
<g><path style="opacity:0.333" fill="#292522" d="M 628.5,611.5 C 628.262,613.404 627.262,614.738 625.5,615.5C 625.738,613.596 626.738,612.262 628.5,611.5 Z"/></g>
<g><path style="opacity:0.373" fill="#2d2823" d="M 303.5,609.5 C 305.587,610.585 306.92,612.251 307.5,614.5C 306.5,613.833 305.5,613.167 304.5,612.5C 303.89,611.609 303.557,610.609 303.5,609.5 Z"/></g>
<g><path style="opacity:0.333" fill="#2a2522" d="M 282.5,614.5 C 283.906,614.973 284.573,615.973 284.5,617.5C 283.094,617.027 282.427,616.027 282.5,614.5 Z"/></g>
<g><path style="opacity:0.333" fill="#2e2823" d="M 561.5,614.5 C 560.958,617.912 559.625,620.912 557.5,623.5C 558.042,620.088 559.375,617.088 561.5,614.5 Z"/></g>
<g><path style="opacity:0.333" fill="#2b2622" d="M 625.5,615.5 C 625.573,617.027 624.906,618.027 623.5,618.5C 623.427,616.973 624.094,615.973 625.5,615.5 Z"/></g>
<g><path style="opacity:0.333" fill="#292522" d="M 284.5,617.5 C 286.262,618.262 287.262,619.596 287.5,621.5C 285.738,620.738 284.738,619.404 284.5,617.5 Z"/></g>
<g><path style="opacity:0.478" fill="#322b24" d="M 307.5,614.5 C 310.573,616.569 312.906,619.236 314.5,622.5C 311.427,620.431 309.094,617.764 307.5,614.5 Z"/></g>
<g><path style="opacity:0.333" fill="#282422" d="M 623.5,618.5 C 623.262,620.404 622.262,621.738 620.5,622.5C 620.738,620.596 621.738,619.262 623.5,618.5 Z"/></g>
<g><path style="opacity:0.333" fill="#2a2622" d="M 287.5,621.5 C 289.587,622.585 290.92,624.251 291.5,626.5C 289.413,625.415 288.08,623.749 287.5,621.5 Z"/></g>
<g><path style="opacity:0.945" fill="#493c28" d="M 314.5,622.5 C 317.833,625.167 320.833,628.167 323.5,631.5C 319.5,629.5 316.5,626.5 314.5,622.5 Z"/></g>
<g><path style="opacity:0.522" fill="#383024" d="M 606.5,607.5 C 599.252,618.75 590.252,628.417 579.5,636.5C 588.895,627.108 597.895,617.442 606.5,607.5 Z"/></g>
<g><path style="opacity:0.333" fill="#2a2522" d="M 619.5,623.5 C 619.262,625.404 618.262,626.738 616.5,627.5C 616.738,625.596 617.738,624.262 619.5,623.5 Z"/></g>
<g><path style="opacity:1" fill="#a98637" d="M 304.5,612.5 C 305.5,613.167 306.5,613.833 307.5,614.5C 309.094,617.764 311.427,620.431 314.5,622.5C 316.5,626.5 319.5,629.5 323.5,631.5C 325.523,634.52 328.19,636.854 331.5,638.5C 332.865,640.86 334.865,642.527 337.5,643.5C 338.167,644.833 339.167,645.833 340.5,646.5C 340.825,654.019 340.492,661.352 339.5,668.5C 338.609,667.89 337.609,667.557 336.5,667.5C 336.027,666.094 335.027,665.427 333.5,665.5C 332.738,663.738 331.404,662.738 329.5,662.5C 328.738,660.738 327.404,659.738 325.5,659.5C 324.415,657.413 322.749,656.08 320.5,655.5C 318.431,652.427 315.764,650.094 312.5,648.5C 309.5,645.167 306.5,641.833 303.5,638.5C 304.493,630.016 304.826,621.349 304.5,612.5 Z"/></g>
<g><path style="opacity:0.333" fill="#2d2723" d="M 291.5,626.5 C 294.243,628.239 296.243,630.573 297.5,633.5C 294.757,631.761 292.757,629.427 291.5,626.5 Z"/></g>
<g><path style="opacity:0.345" fill="#2d2823" d="M 536.5,628.5 C 536.25,630.674 535.25,632.341 533.5,633.5C 533.75,631.326 534.75,629.659 536.5,628.5 Z"/></g>
<g><path style="opacity:0.333" fill="#322b24" d="M 323.5,631.5 C 326.784,633.117 329.451,635.45 331.5,638.5C 328.19,636.854 325.523,634.52 323.5,631.5 Z"/></g>
<g><path style="opacity:0.333" fill="#2b2622" d="M 615.5,628.5 C 614.243,631.427 612.243,633.761 609.5,635.5C 610.757,632.573 612.757,630.239 615.5,628.5 Z"/></g>
<g><path style="opacity:0.333" fill="#2a2522" d="M 554.5,629.5 C 553.207,634.753 550.874,639.419 547.5,643.5C 549.326,638.516 551.659,633.849 554.5,629.5 Z"/></g>
<g><path style="opacity:0.333" fill="#292522" d="M 297.5,633.5 C 299.456,635.114 301.456,636.781 303.5,638.5C 306.5,641.833 309.5,645.167 312.5,648.5C 306.521,644.521 301.521,639.521 297.5,633.5 Z"/></g>
<g><path style="opacity:0.361" fill="#2f2923" d="M 533.5,633.5 C 532.277,637.049 530.277,640.049 527.5,642.5C 528.759,638.975 530.759,635.975 533.5,633.5 Z"/></g>
<g><path style="opacity:0.333" fill="#362e25" d="M 331.5,638.5 C 334.109,639.443 336.109,641.11 337.5,643.5C 334.865,642.527 332.865,640.86 331.5,638.5 Z"/></g>
<g><path style="opacity:0.812" fill="#3f3525" d="M 579.5,636.5 C 578.089,638.914 576.089,640.581 573.5,641.5C 574.911,639.086 576.911,637.419 579.5,636.5 Z"/></g>
<g><path style="opacity:0.478" fill="#312b23" d="M 573.5,641.5 C 572.738,643.262 571.404,644.262 569.5,644.5C 570.262,642.738 571.596,641.738 573.5,641.5 Z"/></g>
<g><path style="opacity:0.333" fill="#2d2723" d="M 337.5,643.5 C 339.404,643.738 340.738,644.738 341.5,646.5C 341.167,646.5 340.833,646.5 340.5,646.5C 339.167,645.833 338.167,644.833 337.5,643.5 Z"/></g>
<g><path style="opacity:0.455" fill="#2f2923" d="M 569.5,644.5 C 568.738,646.262 567.404,647.262 565.5,647.5C 566.262,645.738 567.596,644.738 569.5,644.5 Z"/></g>
<g><path style="opacity:0.333" fill="#282422" d="M 341.5,646.5 C 343.027,646.427 344.027,647.094 344.5,648.5C 342.973,648.573 341.973,647.906 341.5,646.5 Z"/></g>
<g><path style="opacity:0.494" fill="#322b23" d="M 527.5,642.5 C 526.471,645.891 524.471,648.557 521.5,650.5C 523.016,647.467 525.016,644.8 527.5,642.5 Z"/></g>
<g><path style="opacity:0.533" fill="#332c24" d="M 565.5,647.5 C 563.049,650.277 560.049,652.277 556.5,653.5C 558.975,650.759 561.975,648.759 565.5,647.5 Z"/></g>
<g><path style="opacity:0.339" fill="#2c2722" d="M 344.5,648.5 C 348.025,649.759 351.025,651.759 353.5,654.5C 349.951,653.277 346.951,651.277 344.5,648.5 Z"/></g>
<g><path style="opacity:0.333" fill="#2a2522" d="M 597.5,647.5 C 595.761,650.243 593.427,652.243 590.5,653.5C 592.239,650.757 594.573,648.757 597.5,647.5 Z"/></g>
<g><path style="opacity:0.345" fill="#2d2823" d="M 544.5,649.5 C 544.25,651.674 543.25,653.341 541.5,654.5C 541.75,652.326 542.75,650.659 544.5,649.5 Z"/></g>
<g><path style="opacity:0.467" fill="#342d24" d="M 312.5,648.5 C 315.764,650.094 318.431,652.427 320.5,655.5C 317.236,653.906 314.569,651.573 312.5,648.5 Z"/></g>
<g><path style="opacity:0.333" fill="#292522" d="M 353.5,654.5 C 355.027,654.427 356.027,655.094 356.5,656.5C 354.973,656.573 353.973,655.906 353.5,654.5 Z"/></g>
<g><path style="opacity:0.573" fill="#312b23" d="M 556.5,653.5 C 556.027,654.906 555.027,655.573 553.5,655.5C 553.973,654.094 554.973,653.427 556.5,653.5 Z"/></g>
<g><path style="opacity:0.361" fill="#2e2823" d="M 553.5,655.5 C 551.664,657.588 549.331,658.921 546.5,659.5C 548.336,657.412 550.669,656.079 553.5,655.5 Z"/></g>
<g><path style="opacity:0.333" fill="#262321" d="M 589.5,654.5 C 588.415,656.587 586.749,657.92 584.5,658.5C 585.585,656.413 587.251,655.08 589.5,654.5 Z"/></g>
<g><path style="opacity:0.361" fill="#2c2722" d="M 320.5,655.5 C 322.749,656.08 324.415,657.413 325.5,659.5C 323.251,658.92 321.585,657.587 320.5,655.5 Z"/></g>
<g><path style="opacity:0.339" fill="#292422" d="M 358.5,657.5 C 360.674,657.75 362.341,658.75 363.5,660.5C 361.326,660.25 359.659,659.25 358.5,657.5 Z"/></g>
<g><path style="opacity:0.561" fill="#3b3225" d="M 521.5,650.5 C 517.12,657.214 511.453,662.548 504.5,666.5C 510.14,661.195 515.807,655.861 521.5,650.5 Z"/></g>
<g><path style="opacity:0.333" fill="#292522" d="M 539.5,658.5 C 539.573,660.027 538.906,661.027 537.5,661.5C 537.427,659.973 538.094,658.973 539.5,658.5 Z"/></g>
<g><path style="opacity:0.333" fill="#2a2522" d="M 584.5,658.5 C 583.738,660.262 582.404,661.262 580.5,661.5C 581.262,659.738 582.596,658.738 584.5,658.5 Z"/></g>
<g><path style="opacity:0.478" fill="#302a23" d="M 325.5,659.5 C 327.404,659.738 328.738,660.738 329.5,662.5C 327.596,662.262 326.262,661.262 325.5,659.5 Z"/></g>
<g><path style="opacity:0.333" fill="#2b2622" d="M 537.5,661.5 C 537.328,662.492 537.662,663.158 538.5,663.5C 537.473,664.848 536.14,665.348 534.5,665C 535.636,663.855 536.636,662.688 537.5,661.5 Z"/></g>
<g><path style="opacity:0.333" fill="#292522" d="M 580.5,661.5 C 579.738,663.262 578.404,664.262 576.5,664.5C 577.262,662.738 578.596,661.738 580.5,661.5 Z"/></g>
<g><path style="opacity:0.439" fill="#2d2823" d="M 329.5,662.5 C 331.404,662.738 332.738,663.738 333.5,665.5C 331.596,665.262 330.262,664.262 329.5,662.5 Z"/></g>
<g><path style="opacity:0.333" fill="#282322" d="M 576.5,664.5 C 576.027,665.906 575.027,666.573 573.5,666.5C 573.973,665.094 574.973,664.427 576.5,664.5 Z"/></g>
<g><path style="opacity:0.361" fill="#282422" d="M 333.5,665.5 C 335.027,665.427 336.027,666.094 336.5,667.5C 334.973,667.573 333.973,666.906 333.5,665.5 Z"/></g>
<g><path style="opacity:0.333" fill="#302a23" d="M 375.5,666.5 C 378.241,666.707 380.574,667.707 382.5,669.5C 379.759,669.293 377.426,668.293 375.5,666.5 Z"/></g>
<g><path style="opacity:0.333" fill="#292522" d="M 573.5,666.5 C 573.027,667.906 572.027,668.573 570.5,668.5C 570.973,667.094 571.973,666.427 573.5,666.5 Z"/></g>
<g><path style="opacity:0.361" fill="#292422" d="M 336.5,667.5 C 337.609,667.557 338.609,667.89 339.5,668.5C 339.5,668.833 339.5,669.167 339.5,669.5C 337.973,669.573 336.973,668.906 336.5,667.5 Z"/></g>
<g><path style="opacity:0.494" fill="#302a23" d="M 504.5,666.5 C 503.198,668.822 501.198,670.155 498.5,670.5C 500.147,668.674 502.147,667.34 504.5,666.5 Z"/></g>
<g><path style="opacity:0.333" fill="#282422" d="M 570.5,668.5 C 570.027,669.906 569.027,670.573 567.5,670.5C 567.973,669.094 568.973,668.427 570.5,668.5 Z"/></g>
<g><path style="opacity:0.345" fill="#2e2823" d="M 339.5,669.5 C 341.674,669.75 343.341,670.75 344.5,672.5C 342.326,672.25 340.659,671.25 339.5,669.5 Z"/></g>
<g><path style="opacity:0.439" fill="#342d24" d="M 382.5,669.5 C 384.553,669.402 386.22,670.069 387.5,671.5C 385.447,671.598 383.78,670.931 382.5,669.5 Z"/></g>
<g><path style="opacity:0.339" fill="#2a2522" d="M 498.5,670.5 C 497.341,672.25 495.674,673.25 493.5,673.5C 494.659,671.75 496.326,670.75 498.5,670.5 Z"/></g>
<g><path style="opacity:0.333" fill="#262221" d="M 567.5,670.5 C 567.027,671.906 566.027,672.573 564.5,672.5C 564.973,671.094 565.973,670.427 567.5,670.5 Z"/></g>
<g><path style="opacity:0.361" fill="#2a2622" d="M 344.5,672.5 C 346.027,672.427 347.027,673.094 347.5,674.5C 345.973,674.573 344.973,673.906 344.5,672.5 Z"/></g>
<g><path style="opacity:0.561" fill="#3b3225" d="M 390.5,672.5 C 393.785,672.928 396.785,673.928 399.5,675.5C 396.084,675.472 393.084,674.472 390.5,672.5 Z"/></g>
<g><path style="opacity:0.333" fill="#272322" d="M 562.5,673.5 C 562.027,674.906 561.027,675.573 559.5,675.5C 559.973,674.094 560.973,673.427 562.5,673.5 Z"/></g>
<g><path style="opacity:0.333" fill="#2f2923" d="M 399.5,675.5 C 402.152,675.41 404.485,676.076 406.5,677.5C 403.848,677.59 401.515,676.924 399.5,675.5 Z"/></g>
<g><path style="opacity:0.339" fill="#302923" d="M 489.5,675.5 C 488.22,676.931 486.553,677.598 484.5,677.5C 485.78,676.069 487.447,675.402 489.5,675.5 Z"/></g>
<g><path style="opacity:0.339" fill="#2d2722" d="M 349.5,675.5 C 352.331,676.079 354.664,677.412 356.5,679.5C 353.669,678.921 351.336,677.588 349.5,675.5 Z"/></g>
<g><path style="opacity:0.373" fill="#352d24" d="M 411.5,678.5 C 416.696,679.139 421.696,680.139 426.5,681.5C 421.152,681.631 416.152,680.631 411.5,678.5 Z"/></g>
<g><path style="opacity:0.773" fill="#443827" d="M 484.5,677.5 C 484.389,678.117 484.056,678.617 483.5,679C 479.246,680.314 474.913,681.147 470.5,681.5C 474.978,679.877 479.645,678.544 484.5,677.5 Z"/></g>
<g><path style="opacity:0.361" fill="#2d2722" d="M 557.5,676.5 C 552.753,680.207 547.419,682.874 541.5,684.5C 546.516,681.326 551.849,678.659 557.5,676.5 Z"/></g>
<g><path style="opacity:0.373" fill="#332c24" d="M 426.5,681.5 C 433.683,681.768 440.683,682.435 447.5,683.5C 440.262,683.82 433.262,683.153 426.5,681.5 Z"/></g>
<g><path style="opacity:0.988" fill="#4c3e28" d="M 470.5,681.5 C 469.391,682.29 468.058,682.79 466.5,683C 462.179,683.499 457.846,683.666 453.5,683.5C 458.994,682.565 464.661,681.898 470.5,681.5 Z"/></g>
<g><path style="opacity:0.339" fill="#2c2622" d="M 364.5,683.5 C 366.553,683.402 368.22,684.069 369.5,685.5C 367.447,685.598 365.78,684.931 364.5,683.5 Z"/></g>
<g><path style="opacity:1" fill="#5b492a" d="M 369.5,685.5 C 371.483,685.157 372.817,685.824 373.5,687.5C 371.847,687.34 370.514,686.674 369.5,685.5 Z"/></g>
<g><path style="opacity:0.361" fill="#2e2823" d="M 539.5,685.5 C 537.574,687.293 535.241,688.293 532.5,688.5C 534.426,686.707 536.759,685.707 539.5,685.5 Z"/></g>
<g><path style="opacity:1" fill="#4d4028" d="M 376.5,688.5 C 378.698,688.12 380.365,688.787 381.5,690.5C 379.447,690.598 377.78,689.931 376.5,688.5 Z"/></g>
<g><path style="opacity:0.922" fill="#453927" d="M 384.5,691.5 C 387.916,691.528 390.916,692.528 393.5,694.5C 390.215,694.072 387.215,693.072 384.5,691.5 Z"/></g>
<g><path style="opacity:0.333" fill="#322c24" d="M 529.5,689.5 C 522.636,693.009 515.302,695.342 507.5,696.5C 514.615,693.796 521.949,691.463 529.5,689.5 Z"/></g>
<g><path style="opacity:0.973" fill="#493c28" d="M 393.5,694.5 C 396.228,694.171 398.562,694.837 400.5,696.5C 397.933,696.279 395.599,695.612 393.5,694.5 Z"/></g>
<g><path style="opacity:0.8" fill="#403526" d="M 400.5,696.5 C 403.781,696.42 406.781,697.087 409.5,698.5C 406.219,698.58 403.219,697.913 400.5,696.5 Z"/></g>
<g><path style="opacity:0.478" fill="#3d3325" d="M 503.5,697.5 C 496.482,699.894 489.149,701.227 481.5,701.5C 488.633,699.754 495.966,698.42 503.5,697.5 Z"/></g>
</svg>
