<?xml version="1.0" encoding="UTF-8" standalone="no"?>
<!-- Created with Inkscape (http://www.inkscape.org/) -->

<svg
   width="7.0880136mm"
   height="10.139842mm"
   viewBox="0 0 7.0880136 10.139842"
   version="1.1"
   id="svg1"
   inkscape:version="1.4 (e7c3feb1, 2024-10-09)"
   sodipodi:docname="Logo.svg"
   xmlns:inkscape="http://www.inkscape.org/namespaces/inkscape"
   xmlns:sodipodi="http://sodipodi.sourceforge.net/DTD/sodipodi-0.dtd"
   xmlns="http://www.w3.org/2000/svg"
   xmlns:svg="http://www.w3.org/2000/svg">
  <sodipodi:namedview
     id="namedview1"
     pagecolor="#ffffff"
     bordercolor="#000000"
     borderopacity="0.25"
     inkscape:showpageshadow="2"
     inkscape:pageopacity="0.0"
     inkscape:pagecheckerboard="0"
     inkscape:deskcolor="#d1d1d1"
     inkscape:document-units="mm"
     inkscape:zoom="5.9222035"
     inkscape:cx="18.236456"
     inkscape:cy="17.561031"
     inkscape:window-width="1512"
     inkscape:window-height="945"
     inkscape:window-x="0"
     inkscape:window-y="37"
     inkscape:window-maximized="0"
     inkscape:current-layer="layer1" />
  <defs
     id="defs1" />
  <g
     inkscape:label="Layer 1"
     inkscape:groupmode="layer"
     id="layer1"
     transform="translate(-9.1409475,-7.2627594)">
    <path
       style="fill:#191919;fill-opacity:1;fill-rule:nonzero;stroke:none;stroke-width:0.264583"
       d="m 16.228961,14.052021 c 0,-0.20774 -0.11679,-0.38757 -0.28835,-0.47956 -0.0269,-0.0186 -4.605405,-2.986892 -4.605405,-2.986892 -0.03721,-0.0258 -0.07235,-0.0517 -0.103354,-0.0765 -0.263549,-0.2098 -0.249079,-0.6159796 0.02169,-0.8154496 l 2.961061,-2.18591 -0.179835,-0.24495 c 0,0 -3.347598,2.466 -4.5072165,3.3217596 -0.275953,0.20361 -0.341067,0.60048 -0.124024,0.86817 0.02066,0.0248 0.07545,0.0682 0.09612,0.0816 0.251148,0.17054 4.0514325,2.640672 4.4338375,2.890792 0.525031,0.34416 0.592212,0.65835 0.389641,1.19475 -0.376205,0.99736 -0.908473,1.46968 -1.724961,1.46245 -1.702221,-0.0434 -3.0768135,-1.4025 -3.1481265,-3.09645 -0.0011,-0.0341 -0.0011,-0.0259 -0.0011,-0.0259 l -0.307991,0.0537 c 0,0 0,-0.008 0.0011,0.0207 0.09405,1.87483 1.6433115,3.36724 3.5419035,3.36827 1.799373,10e-4 3.28662,-1.33945 3.5171,-3.07578 0.003,-0.0165 0.0279,-0.25838 0.0279,-0.27491 m -0.34003,0.2284 c -0.13539,1.0139 -0.74104,1.87999 -1.590603,2.37092 0,-10e-4 0,-10e-4 0,-0.002 -0.08165,0.0465 -0.163298,0.0878 -0.270785,0.14056 0.476457,-0.76377 0.811318,-1.77663 0.811318,-1.77663 l 1.0759,-0.89917 c 0,0 -0.0279,0.16743 -0.0258,0.16639"
       id="path207" />
  </g>
</svg>
